<svg xmlns="http://www.w3.org/2000/svg" xmlns:xlink="http://www.w3.org/1999/xlink" contentStyleType="text/css" height="319px" preserveAspectRatio="none" style="width:1549px;height:319px;background:#FFFFFF;" version="1.1" viewBox="0 0 1549 319" width="1549px" zoomAndPan="magnify"><defs/><g><!--cluster Framework--><g id="cluster_Framework"><path d="M8.5,6 L98.2646,6 A3.75,3.75 0 0 1 100.7646,8.5 L107.7646,28.2969 L1281.5,28.2969 A2.5,2.5 0 0 1 1284,30.7969 L1284,310.09 A2.5,2.5 0 0 1 1281.5,312.59 L8.5,312.59 A2.5,2.5 0 0 1 6,310.09 L6,8.5 A2.5,2.5 0 0 1 8.5,6 " fill="none" style="stroke:#000000;stroke-width:1.5;"/><line style="stroke:#000000;stroke-width:1.5;" x1="6" x2="107.7646" y1="28.2969" y2="28.2969"/><text fill="#000000" font-family="sans-serif" font-size="14" font-weight="bold" lengthAdjust="spacing" textLength="88.7646" x="10" y="20.9951">Framework</text></g><!--cluster Cache--><g id="cluster_Cache"><path d="M32.5,49 L80.9824,49 A3.75,3.75 0 0 1 83.4824,51.5 L90.4824,71.2969 L338.5,71.2969 A2.5,2.5 0 0 1 341,73.7969 L341,286.09 A2.5,2.5 0 0 1 338.5,288.59 L32.5,288.59 A2.5,2.5 0 0 1 30,286.09 L30,51.5 A2.5,2.5 0 0 1 32.5,49 " fill="none" style="stroke:#000000;stroke-width:1.5;"/><line style="stroke:#000000;stroke-width:1.5;" x1="30" x2="90.4824" y1="71.2969" y2="71.2969"/><text fill="#000000" font-family="sans-serif" font-size="14" font-weight="bold" lengthAdjust="spacing" textLength="47.4824" x="34" y="63.9951">Cache</text></g><!--cluster ORM--><g id="cluster_ORM"><path d="M367.5,49 L405.1133,49 A3.75,3.75 0 0 1 407.6133,51.5 L414.6133,71.2969 L526.5,71.2969 A2.5,2.5 0 0 1 529,73.7969 L529,161.79 A2.5,2.5 0 0 1 526.5,164.29 L367.5,164.29 A2.5,2.5 0 0 1 365,161.79 L365,51.5 A2.5,2.5 0 0 1 367.5,49 " fill="none" style="stroke:#000000;stroke-width:1.5;"/><line style="stroke:#000000;stroke-width:1.5;" x1="365" x2="414.6133" y1="71.2969" y2="71.2969"/><text fill="#000000" font-family="sans-serif" font-size="14" font-weight="bold" lengthAdjust="spacing" textLength="36.6133" x="369" y="63.9951">ORM</text></g><!--cluster Storage Engine--><g id="cluster_Storage Engine"><path d="M555.5,49 L677.4482,49 A3.75,3.75 0 0 1 679.9482,51.5 L686.9482,71.2969 L1001.5,71.2969 A2.5,2.5 0 0 1 1004,73.7969 L1004,286.09 A2.5,2.5 0 0 1 1001.5,288.59 L555.5,288.59 A2.5,2.5 0 0 1 553,286.09 L553,51.5 A2.5,2.5 0 0 1 555.5,49 " fill="none" style="stroke:#000000;stroke-width:1.5;"/><line style="stroke:#000000;stroke-width:1.5;" x1="553" x2="686.9482" y1="71.2969" y2="71.2969"/><text fill="#000000" font-family="sans-serif" font-size="14" font-weight="bold" lengthAdjust="spacing" textLength="120.9482" x="557" y="63.9951">Storage Engine</text></g><!--class core--><g id="elem_core"><rect codeLine="14" fill="#F1F1F1" height="64.2969" id="core" rx="2.5" ry="2.5" style="stroke:#181818;stroke-width:0.5;" width="95.9996" x="1025" y="84"/><ellipse cx="1055.0155" cy="100" fill="#ADD1B2" rx="11" ry="11" style="stroke:#181818;stroke-width:1.0;"/><path d="M1057.9843,105.6406 Q1057.4061,105.9375 1056.7655,106.0781 Q1056.1249,106.2344 1055.4218,106.2344 Q1052.9218,106.2344 1051.5936,104.5937 Q1050.2811,102.9375 1050.2811,99.8125 Q1050.2811,96.6875 1051.5936,95.0312 Q1052.9218,93.375 1055.4218,93.375 Q1056.1249,93.375 1056.7655,93.5312 Q1057.4218,93.6875 1057.9843,93.9844 L1057.9843,96.7031 Q1057.3593,96.125 1056.7655,95.8594 Q1056.1718,95.5781 1055.5468,95.5781 Q1054.203,95.5781 1053.5155,96.6562 Q1052.828,97.7187 1052.828,99.8125 Q1052.828,101.9062 1053.5155,102.9844 Q1054.203,104.0469 1055.5468,104.0469 Q1056.1718,104.0469 1056.7655,103.7812 Q1057.3593,103.5 1057.9843,102.9219 L1057.9843,105.6406 Z " fill="#000000"/><text fill="#000000" font-family="sans-serif" font-size="14" lengthAdjust="spacing" textLength="30.6318" x="1072.3523" y="104.8467">core</text><line style="stroke:#181818;stroke-width:0.5;" x1="1026" x2="1119.9996" y1="116" y2="116"/><text fill="#000000" font-family="sans-serif" font-size="14" lengthAdjust="spacing" textLength="83.9996" x="1031" y="132.9951">&#26680;&#24515;&#20844;&#20849;&#27169;&#22359;</text><line style="stroke:#181818;stroke-width:0.5;" x1="1026" x2="1119.9996" y1="140.2969" y2="140.2969"/></g><!--class schedule--><g id="elem_schedule"><rect codeLine="24" fill="#F1F1F1" height="64.2969" id="schedule" rx="2.5" ry="2.5" style="stroke:#181818;stroke-width:0.5;" width="95.9996" x="1156" y="84"/><ellipse cx="1171.5667" cy="100" fill="#ADD1B2" rx="11" ry="11" style="stroke:#181818;stroke-width:1.0;"/><path d="M1174.5355,105.6406 Q1173.9574,105.9375 1173.3167,106.0781 Q1172.6761,106.2344 1171.973,106.2344 Q1169.473,106.2344 1168.1449,104.5937 Q1166.8324,102.9375 1166.8324,99.8125 Q1166.8324,96.6875 1168.1449,95.0312 Q1169.473,93.375 1171.973,93.375 Q1172.6761,93.375 1173.3167,93.5312 Q1173.973,93.6875 1174.5355,93.9844 L1174.5355,96.7031 Q1173.9105,96.125 1173.3167,95.8594 Q1172.723,95.5781 1172.098,95.5781 Q1170.7542,95.5781 1170.0667,96.6562 Q1169.3792,97.7187 1169.3792,99.8125 Q1169.3792,101.9062 1170.0667,102.9844 Q1170.7542,104.0469 1172.098,104.0469 Q1172.723,104.0469 1173.3167,103.7812 Q1173.9105,103.5 1174.5355,102.9219 L1174.5355,105.6406 Z " fill="#000000"/><text fill="#000000" font-family="sans-serif" font-size="14" lengthAdjust="spacing" textLength="62.7402" x="1185.6927" y="104.8467">schedule</text><line style="stroke:#181818;stroke-width:0.5;" x1="1157" x2="1250.9996" y1="116" y2="116"/><text fill="#000000" font-family="sans-serif" font-size="14" lengthAdjust="spacing" textLength="83.9996" x="1162" y="132.9951">&#23450;&#26102;&#20219;&#21153;&#27169;&#22359;</text><line style="stroke:#181818;stroke-width:0.5;" x1="1157" x2="1250.9996" y1="140.2969" y2="140.2969"/></g><!--class swagger2--><g id="elem_swagger2"><rect codeLine="43" fill="#F1F1F1" height="64.2969" id="swagger2" rx="2.5" ry="2.5" style="stroke:#181818;stroke-width:0.5;" width="100.373" x="1022.81" y="208.29"/><ellipse cx="1037.81" cy="224.29" fill="#ADD1B2" rx="11" ry="11" style="stroke:#181818;stroke-width:1.0;"/><path d="M1040.7788,229.9306 Q1040.2006,230.2275 1039.56,230.3681 Q1038.9194,230.5244 1038.2163,230.5244 Q1035.7163,230.5244 1034.3881,228.8837 Q1033.0756,227.2275 1033.0756,224.1025 Q1033.0756,220.9775 1034.3881,219.3212 Q1035.7163,217.665 1038.2163,217.665 Q1038.9194,217.665 1039.56,217.8212 Q1040.2163,217.9775 1040.7788,218.2744 L1040.7788,220.9931 Q1040.1538,220.415 1039.56,220.1494 Q1038.9663,219.8681 1038.3413,219.8681 Q1036.9975,219.8681 1036.31,220.9462 Q1035.6225,222.0087 1035.6225,224.1025 Q1035.6225,226.1962 1036.31,227.2744 Q1036.9975,228.3369 1038.3413,228.3369 Q1038.9663,228.3369 1039.56,228.0712 Q1040.1538,227.79 1040.7788,227.2119 L1040.7788,229.9306 Z " fill="#000000"/><text fill="#000000" font-family="sans-serif" font-size="14" lengthAdjust="spacing" textLength="68.373" x="1051.81" y="229.1367">swagger2</text><line style="stroke:#181818;stroke-width:0.5;" x1="1023.81" x2="1122.183" y1="240.29" y2="240.29"/><text fill="#000000" font-family="sans-serif" font-size="14" lengthAdjust="spacing" textLength="82.5984" x="1028.81" y="257.2851">API &#25991;&#26723;&#27169;&#22359;</text><line style="stroke:#181818;stroke-width:0.5;" x1="1023.81" x2="1122.183" y1="264.5869" y2="264.5869"/></g><!--class web--><g id="elem_web"><rect codeLine="47" fill="#F1F1F1" height="64.2969" id="web" rx="2.5" ry="2.5" style="stroke:#181818;stroke-width:0.5;" width="109.9996" x="1158" y="208.29"/><ellipse cx="1195.0722" cy="224.29" fill="#ADD1B2" rx="11" ry="11" style="stroke:#181818;stroke-width:1.0;"/><path d="M1198.041,229.9306 Q1197.4628,230.2275 1196.8222,230.3681 Q1196.1816,230.5244 1195.4785,230.5244 Q1192.9785,230.5244 1191.6503,228.8837 Q1190.3378,227.2275 1190.3378,224.1025 Q1190.3378,220.9775 1191.6503,219.3212 Q1192.9785,217.665 1195.4785,217.665 Q1196.1816,217.665 1196.8222,217.8212 Q1197.4785,217.9775 1198.041,218.2744 L1198.041,220.9931 Q1197.416,220.415 1196.8222,220.1494 Q1196.2285,219.8681 1195.6035,219.8681 Q1194.2597,219.8681 1193.5722,220.9462 Q1192.8847,222.0087 1192.8847,224.1025 Q1192.8847,226.1962 1193.5722,227.2744 Q1194.2597,228.3369 1195.6035,228.3369 Q1196.2285,228.3369 1196.8222,228.0712 Q1197.416,227.79 1198.041,227.2119 L1198.041,229.9306 Z " fill="#000000"/><text fill="#000000" font-family="sans-serif" font-size="14" lengthAdjust="spacing" textLength="28.9502" x="1213.9772" y="229.1367">web</text><line style="stroke:#181818;stroke-width:0.5;" x1="1159" x2="1266.9996" y1="240.29" y2="240.29"/><text fill="#000000" font-family="sans-serif" font-size="14" lengthAdjust="spacing" textLength="97.9996" x="1164" y="257.2851">&#21518;&#31471;&#26381;&#21153;&#20027;&#26694;&#26550;</text><line style="stroke:#181818;stroke-width:0.5;" x1="1159" x2="1266.9996" y1="264.5869" y2="264.5869"/></g><!--class cache-core--><g id="elem_cache-core"><rect codeLine="3" fill="#F1F1F1" height="64.2969" id="cache-core" rx="2.5" ry="2.5" style="stroke:#181818;stroke-width:0.5;" width="109.1436" x="46.43" y="84"/><ellipse cx="61.43" cy="100" fill="#ADD1B2" rx="11" ry="11" style="stroke:#181818;stroke-width:1.0;"/><path d="M64.3988,105.6406 Q63.8206,105.9375 63.18,106.0781 Q62.5394,106.2344 61.8363,106.2344 Q59.3363,106.2344 58.0081,104.5937 Q56.6956,102.9375 56.6956,99.8125 Q56.6956,96.6875 58.0081,95.0312 Q59.3363,93.375 61.8363,93.375 Q62.5394,93.375 63.18,93.5312 Q63.8363,93.6875 64.3988,93.9844 L64.3988,96.7031 Q63.7738,96.125 63.18,95.8594 Q62.5863,95.5781 61.9613,95.5781 Q60.6175,95.5781 59.93,96.6562 Q59.2425,97.7187 59.2425,99.8125 Q59.2425,101.9062 59.93,102.9844 Q60.6175,104.0469 61.9613,104.0469 Q62.5863,104.0469 63.18,103.7812 Q63.7738,103.5 64.3988,102.9219 L64.3988,105.6406 Z " fill="#000000"/><text fill="#000000" font-family="sans-serif" font-size="14" lengthAdjust="spacing" textLength="77.1436" x="75.43" y="104.8467">cache-core</text><line style="stroke:#181818;stroke-width:0.5;" x1="47.43" x2="154.5736" y1="116" y2="116"/><text fill="#000000" font-family="sans-serif" font-size="14" lengthAdjust="spacing" textLength="83.9996" x="52.43" y="132.9951">&#26680;&#24515;&#32531;&#23384;&#27169;&#22359;</text><line style="stroke:#181818;stroke-width:0.5;" x1="47.43" x2="154.5736" y1="140.2969" y2="140.2969"/></g><!--class cache-caffeine--><g id="elem_cache-caffeine"><rect codeLine="6" fill="#F1F1F1" height="64.2969" id="cache-caffeine" rx="2.5" ry="2.5" style="stroke:#181818;stroke-width:0.5;" width="134.6348" x="190.68" y="84"/><ellipse cx="205.68" cy="100" fill="#ADD1B2" rx="11" ry="11" style="stroke:#181818;stroke-width:1.0;"/><path d="M208.6488,105.6406 Q208.0706,105.9375 207.43,106.0781 Q206.7894,106.2344 206.0863,106.2344 Q203.5863,106.2344 202.2581,104.5937 Q200.9456,102.9375 200.9456,99.8125 Q200.9456,96.6875 202.2581,95.0312 Q203.5863,93.375 206.0863,93.375 Q206.7894,93.375 207.43,93.5312 Q208.0863,93.6875 208.6488,93.9844 L208.6488,96.7031 Q208.0238,96.125 207.43,95.8594 Q206.8363,95.5781 206.2113,95.5781 Q204.8675,95.5781 204.18,96.6562 Q203.4925,97.7187 203.4925,99.8125 Q203.4925,101.9062 204.18,102.9844 Q204.8675,104.0469 206.2113,104.0469 Q206.8363,104.0469 207.43,103.7812 Q208.0238,103.5 208.6488,102.9219 L208.6488,105.6406 Z " fill="#000000"/><text fill="#000000" font-family="sans-serif" font-size="14" lengthAdjust="spacing" textLength="102.6348" x="219.68" y="104.8467">cache-caffeine</text><line style="stroke:#181818;stroke-width:0.5;" x1="191.68" x2="324.3148" y1="116" y2="116"/><text fill="#000000" font-family="sans-serif" font-size="14" lengthAdjust="spacing" textLength="118.6511" x="196.68" y="132.9951">Caffeine &#26412;&#22320;&#32531;&#23384;</text><line style="stroke:#181818;stroke-width:0.5;" x1="191.68" x2="324.3148" y1="140.2969" y2="140.2969"/></g><!--class cache-redis--><g id="elem_cache-redis"><rect codeLine="9" fill="#F1F1F1" height="64.2969" id="cache-redis" rx="2.5" ry="2.5" style="stroke:#181818;stroke-width:0.5;" width="112.9512" x="45.52" y="208.29"/><ellipse cx="60.52" cy="224.29" fill="#ADD1B2" rx="11" ry="11" style="stroke:#181818;stroke-width:1.0;"/><path d="M63.4888,229.9306 Q62.9106,230.2275 62.27,230.3681 Q61.6294,230.5244 60.9263,230.5244 Q58.4263,230.5244 57.0981,228.8837 Q55.7856,227.2275 55.7856,224.1025 Q55.7856,220.9775 57.0981,219.3212 Q58.4263,217.665 60.9263,217.665 Q61.6294,217.665 62.27,217.8212 Q62.9263,217.9775 63.4888,218.2744 L63.4888,220.9931 Q62.8638,220.415 62.27,220.1494 Q61.6763,219.8681 61.0513,219.8681 Q59.7075,219.8681 59.02,220.9462 Q58.3325,222.0087 58.3325,224.1025 Q58.3325,226.1962 59.02,227.2744 Q59.7075,228.3369 61.0513,228.3369 Q61.6763,228.3369 62.27,228.0712 Q62.8638,227.79 63.4888,227.2119 L63.4888,229.9306 Z " fill="#000000"/><text fill="#000000" font-family="sans-serif" font-size="14" lengthAdjust="spacing" textLength="80.9512" x="74.52" y="229.1367">cache-redis</text><line style="stroke:#181818;stroke-width:0.5;" x1="46.52" x2="157.4712" y1="240.29" y2="240.29"/><text fill="#000000" font-family="sans-serif" font-size="14" lengthAdjust="spacing" textLength="70.8612" x="51.52" y="257.2851">Redis &#32531;&#23384;</text><line style="stroke:#181818;stroke-width:0.5;" x1="46.52" x2="157.4712" y1="264.5869" y2="264.5869"/></g><!--class mybatis-plus--><g id="elem_mybatis-plus"><rect codeLine="19" fill="#F1F1F1" height="64.2969" id="mybatis-plus" rx="2.5" ry="2.5" style="stroke:#181818;stroke-width:0.5;" width="132.62" x="380.69" y="84"/><ellipse cx="400.4435" cy="100" fill="#ADD1B2" rx="11" ry="11" style="stroke:#181818;stroke-width:1.0;"/><path d="M403.4123,105.6406 Q402.8341,105.9375 402.1935,106.0781 Q401.5529,106.2344 400.8498,106.2344 Q398.3498,106.2344 397.0216,104.5937 Q395.7091,102.9375 395.7091,99.8125 Q395.7091,96.6875 397.0216,95.0312 Q398.3498,93.375 400.8498,93.375 Q401.5529,93.375 402.1935,93.5312 Q402.8498,93.6875 403.4123,93.9844 L403.4123,96.7031 Q402.7873,96.125 402.1935,95.8594 Q401.5998,95.5781 400.9748,95.5781 Q399.631,95.5781 398.9435,96.6562 Q398.256,97.7187 398.256,99.8125 Q398.256,101.9062 398.9435,102.9844 Q399.631,104.0469 400.9748,104.0469 Q401.5998,104.0469 402.1935,103.7812 Q402.7873,103.5 403.4123,102.9219 L403.4123,105.6406 Z " fill="#000000"/><text fill="#000000" font-family="sans-serif" font-size="14" lengthAdjust="spacing" textLength="90.0566" x="415.4998" y="104.8467">mybatis-plus</text><line style="stroke:#181818;stroke-width:0.5;" x1="381.69" x2="512.31" y1="116" y2="116"/><text fill="#000000" font-family="sans-serif" font-size="14" lengthAdjust="spacing" textLength="120.62" x="386.69" y="132.9951">MyBatis Plus &#23454;&#29616;</text><line style="stroke:#181818;stroke-width:0.5;" x1="381.69" x2="512.31" y1="140.2969" y2="140.2969"/></g><!--class storage-engine-core--><g id="elem_storage-engine-core"><rect codeLine="29" fill="#F1F1F1" height="64.2969" id="storage-engine-core" rx="2.5" ry="2.5" style="stroke:#181818;stroke-width:0.5;" width="173.668" x="579.17" y="84"/><ellipse cx="594.17" cy="100" fill="#ADD1B2" rx="11" ry="11" style="stroke:#181818;stroke-width:1.0;"/><path d="M597.1388,105.6406 Q596.5606,105.9375 595.92,106.0781 Q595.2794,106.2344 594.5763,106.2344 Q592.0763,106.2344 590.7481,104.5937 Q589.4356,102.9375 589.4356,99.8125 Q589.4356,96.6875 590.7481,95.0312 Q592.0763,93.375 594.5763,93.375 Q595.2794,93.375 595.92,93.5312 Q596.5763,93.6875 597.1388,93.9844 L597.1388,96.7031 Q596.5138,96.125 595.92,95.8594 Q595.3263,95.5781 594.7013,95.5781 Q593.3575,95.5781 592.67,96.6562 Q591.9825,97.7187 591.9825,99.8125 Q591.9825,101.9062 592.67,102.9844 Q593.3575,104.0469 594.7013,104.0469 Q595.3263,104.0469 595.92,103.7812 Q596.5138,103.5 597.1388,102.9219 L597.1388,105.6406 Z " fill="#000000"/><text fill="#000000" font-family="sans-serif" font-size="14" lengthAdjust="spacing" textLength="141.668" x="608.17" y="104.8467">storage-engine-core</text><line style="stroke:#181818;stroke-width:0.5;" x1="580.17" x2="751.838" y1="116" y2="116"/><text fill="#000000" font-family="sans-serif" font-size="14" lengthAdjust="spacing" textLength="111.9995" x="585.17" y="132.9951">&#26680;&#24515;&#23384;&#20648;&#24341;&#25806;&#27169;&#22359;</text><line style="stroke:#181818;stroke-width:0.5;" x1="580.17" x2="751.838" y1="140.2969" y2="140.2969"/></g><!--class storage-engine-fastdfs--><g id="elem_storage-engine-fastdfs"><rect codeLine="32" fill="#F1F1F1" height="64.2969" id="storage-engine-fastdfs" rx="2.5" ry="2.5" style="stroke:#181818;stroke-width:0.5;" width="190.4365" x="787.78" y="84"/><ellipse cx="802.78" cy="100" fill="#ADD1B2" rx="11" ry="11" style="stroke:#181818;stroke-width:1.0;"/><path d="M805.7488,105.6406 Q805.1706,105.9375 804.53,106.0781 Q803.8894,106.2344 803.1863,106.2344 Q800.6863,106.2344 799.3581,104.5937 Q798.0456,102.9375 798.0456,99.8125 Q798.0456,96.6875 799.3581,95.0312 Q800.6863,93.375 803.1863,93.375 Q803.8894,93.375 804.53,93.5312 Q805.1863,93.6875 805.7488,93.9844 L805.7488,96.7031 Q805.1238,96.125 804.53,95.8594 Q803.9363,95.5781 803.3113,95.5781 Q801.9675,95.5781 801.28,96.6562 Q800.5925,97.7187 800.5925,99.8125 Q800.5925,101.9062 801.28,102.9844 Q801.9675,104.0469 803.3113,104.0469 Q803.9363,104.0469 804.53,103.7812 Q805.1238,103.5 805.7488,102.9219 L805.7488,105.6406 Z " fill="#000000"/><text fill="#000000" font-family="sans-serif" font-size="14" lengthAdjust="spacing" textLength="158.4365" x="816.78" y="104.8467">storage-engine-fastdfs</text><line style="stroke:#181818;stroke-width:0.5;" x1="788.78" x2="977.2165" y1="116" y2="116"/><text fill="#000000" font-family="sans-serif" font-size="14" lengthAdjust="spacing" textLength="164.0347" x="793.78" y="132.9951">&#22522;&#20110; FastDFS &#30340;&#23384;&#20648;&#24341;&#25806;</text><line style="stroke:#181818;stroke-width:0.5;" x1="788.78" x2="977.2165" y1="140.2969" y2="140.2969"/></g><!--class storage-engine-local--><g id="elem_storage-engine-local"><rect codeLine="35" fill="#F1F1F1" height="64.2969" id="storage-engine-local" rx="2.5" ry="2.5" style="stroke:#181818;stroke-width:0.5;" width="193.9992" x="569" y="208.29"/><ellipse cx="592.2539" cy="224.29" fill="#ADD1B2" rx="11" ry="11" style="stroke:#181818;stroke-width:1.0;"/><path d="M595.2226,229.9306 Q594.6445,230.2275 594.0039,230.3681 Q593.3633,230.5244 592.6601,230.5244 Q590.1601,230.5244 588.832,228.8837 Q587.5195,227.2275 587.5195,224.1025 Q587.5195,220.9775 588.832,219.3212 Q590.1601,217.665 592.6601,217.665 Q593.3633,217.665 594.0039,217.8212 Q594.6601,217.9775 595.2226,218.2744 L595.2226,220.9931 Q594.5976,220.415 594.0039,220.1494 Q593.4101,219.8681 592.7851,219.8681 Q591.4414,219.8681 590.7539,220.9462 Q590.0664,222.0087 590.0664,224.1025 Q590.0664,226.1962 590.7539,227.2744 Q591.4414,228.3369 592.7851,228.3369 Q593.4101,228.3369 594.0039,228.0712 Q594.5976,227.79 595.2226,227.2119 L595.2226,229.9306 Z " fill="#000000"/><text fill="#000000" font-family="sans-serif" font-size="14" lengthAdjust="spacing" textLength="143.6572" x="608.0881" y="229.1367">storage-engine-local</text><line style="stroke:#181818;stroke-width:0.5;" x1="570" x2="761.9992" y1="240.29" y2="240.29"/><text fill="#000000" font-family="sans-serif" font-size="14" lengthAdjust="spacing" textLength="181.9992" x="575" y="257.2851">&#22522;&#20110;&#26412;&#22320;&#25991;&#20214;&#31995;&#32479;&#30340;&#23384;&#20648;&#24341;&#25806;</text><line style="stroke:#181818;stroke-width:0.5;" x1="570" x2="761.9992" y1="264.5869" y2="264.5869"/></g><!--class storage-engine-oss--><g id="elem_storage-engine-oss"><rect codeLine="38" fill="#F1F1F1" height="64.2969" id="storage-engine-oss" rx="2.5" ry="2.5" style="stroke:#181818;stroke-width:0.5;" width="189.6927" x="798.15" y="208.29"/><ellipse cx="823.7265" cy="224.29" fill="#ADD1B2" rx="11" ry="11" style="stroke:#181818;stroke-width:1.0;"/><path d="M826.6952,229.9306 Q826.1171,230.2275 825.4765,230.3681 Q824.8359,230.5244 824.1327,230.5244 Q821.6327,230.5244 820.3046,228.8837 Q818.9921,227.2275 818.9921,224.1025 Q818.9921,220.9775 820.3046,219.3212 Q821.6327,217.665 824.1327,217.665 Q824.8359,217.665 825.4765,217.8212 Q826.1327,217.9775 826.6952,218.2744 L826.6952,220.9931 Q826.0702,220.415 825.4765,220.1494 Q824.8827,219.8681 824.2577,219.8681 Q822.914,219.8681 822.2265,220.9462 Q821.539,222.0087 821.539,224.1025 Q821.539,226.1962 822.2265,227.2744 Q822.914,228.3369 824.2577,228.3369 Q824.8827,228.3369 825.4765,228.0712 Q826.0702,227.79 826.6952,227.2119 L826.6952,229.9306 Z " fill="#000000"/><text fill="#000000" font-family="sans-serif" font-size="14" lengthAdjust="spacing" textLength="134.1895" x="840.0768" y="229.1367">storage-engine-oss</text><line style="stroke:#181818;stroke-width:0.5;" x1="799.15" x2="986.8427" y1="240.29" y2="240.29"/><text fill="#000000" font-family="sans-serif" font-size="14" lengthAdjust="spacing" textLength="177.6927" x="804.15" y="257.2851">&#22522;&#20110;&#38463;&#37324;&#20113; OSS &#30340;&#23384;&#20648;&#24341;&#25806;</text><line style="stroke:#181818;stroke-width:0.5;" x1="799.15" x2="986.8427" y1="264.5869" y2="264.5869"/></g><!--class distribution--><g id="elem_distribution"><rect codeLine="52" fill="#F1F1F1" height="64.2969" id="distribution" rx="2.5" ry="2.5" style="stroke:#181818;stroke-width:0.5;" width="111.7822" x="1300.11" y="84"/><ellipse cx="1315.11" cy="100" fill="#ADD1B2" rx="11" ry="11" style="stroke:#181818;stroke-width:1.0;"/><path d="M1318.0788,105.6406 Q1317.5006,105.9375 1316.86,106.0781 Q1316.2194,106.2344 1315.5163,106.2344 Q1313.0163,106.2344 1311.6881,104.5937 Q1310.3756,102.9375 1310.3756,99.8125 Q1310.3756,96.6875 1311.6881,95.0312 Q1313.0163,93.375 1315.5163,93.375 Q1316.2194,93.375 1316.86,93.5312 Q1317.5163,93.6875 1318.0788,93.9844 L1318.0788,96.7031 Q1317.4538,96.125 1316.86,95.8594 Q1316.2663,95.5781 1315.6413,95.5781 Q1314.2975,95.5781 1313.61,96.6562 Q1312.9225,97.7187 1312.9225,99.8125 Q1312.9225,101.9062 1313.61,102.9844 Q1314.2975,104.0469 1315.6413,104.0469 Q1316.2663,104.0469 1316.86,103.7812 Q1317.4538,103.5 1318.0788,102.9219 L1318.0788,105.6406 Z " fill="#000000"/><text fill="#000000" font-family="sans-serif" font-size="14" lengthAdjust="spacing" textLength="79.7822" x="1329.11" y="104.8467">distribution</text><line style="stroke:#181818;stroke-width:0.5;" x1="1301.11" x2="1410.8922" y1="116" y2="116"/><text fill="#000000" font-family="sans-serif" font-size="14" lengthAdjust="spacing" textLength="83.9996" x="1306.11" y="132.9951">&#39033;&#30446;&#25171;&#21253;&#27169;&#22359;</text><line style="stroke:#181818;stroke-width:0.5;" x1="1301.11" x2="1410.8922" y1="140.2969" y2="140.2969"/></g><!--class server--><g id="elem_server"><rect codeLine="56" fill="#F1F1F1" height="64.2969" id="server" rx="2.5" ry="2.5" style="stroke:#181818;stroke-width:0.5;" width="95.9996" x="1447" y="84"/><ellipse cx="1470.857" cy="100" fill="#ADD1B2" rx="11" ry="11" style="stroke:#181818;stroke-width:1.0;"/><path d="M1473.8258,105.6406 Q1473.2476,105.9375 1472.607,106.0781 Q1471.9664,106.2344 1471.2633,106.2344 Q1468.7633,106.2344 1467.4351,104.5937 Q1466.1226,102.9375 1466.1226,99.8125 Q1466.1226,96.6875 1467.4351,95.0312 Q1468.7633,93.375 1471.2633,93.375 Q1471.9664,93.375 1472.607,93.5312 Q1473.2633,93.6875 1473.8258,93.9844 L1473.8258,96.7031 Q1473.2008,96.125 1472.607,95.8594 Q1472.0133,95.5781 1471.3883,95.5781 Q1470.0445,95.5781 1469.357,96.6562 Q1468.6695,97.7187 1468.6695,99.8125 Q1468.6695,101.9062 1469.357,102.9844 Q1470.0445,104.0469 1471.3883,104.0469 Q1472.0133,104.0469 1472.607,103.7812 Q1473.2008,103.5 1473.8258,102.9219 L1473.8258,105.6406 Z " fill="#000000"/><text fill="#000000" font-family="sans-serif" font-size="14" lengthAdjust="spacing" textLength="44.3174" x="1486.8252" y="104.8467">server</text><line style="stroke:#181818;stroke-width:0.5;" x1="1448" x2="1541.9996" y1="116" y2="116"/><text fill="#000000" font-family="sans-serif" font-size="14" lengthAdjust="spacing" textLength="83.9996" x="1453" y="132.9951">&#21518;&#31471;&#26381;&#21153;&#27169;&#22359;</text><line style="stroke:#181818;stroke-width:0.5;" x1="1448" x2="1541.9996" y1="140.2969" y2="140.2969"/></g><!--SRC=[dLFVIi9G6B_lAGxUUzCRb2Lq8Oe-mN4URJYTdCr4eflAfB1HI2bcskX6oCm8n9pWo-oSuLjqrfnjKrlqNHp6z_j-l-_l2f3BmWm2WJ26ELGISJO0ZhS0iuADX21tY6olQPm09Ga4EDCVv4Ji0asZJsCoEpEcTVBQf3sLF3QMyCa65PXE8pw_eXHQ-05jzqbxQ4dwYM6KuYMlKjnqWhK2rhlbrF4qPJL4AdrIUNSqv20kfnMDHzRCAbTEGfcNWWMXk59PfBnhOY36C4067KCP-XOeiJvJHS5L91cqQ6EaQngvKdsAJCWYDZ_syndFq6rzAo28lWD-MJAR9ZdjaUaThIj-g_Q8fg4afz8huo3TYJvHG9YXU-44C5hdpXn_LXT43WhhjQrRelTLNHiP7vgXTV-RH9Gsb3zlpkRLcZwv1T64Nmzhjbk2cGp2sqxjdTW1O2LJzTcrMoUjX9AkUxXHZ9Stshvczw2FDQfUqCveGMF41Odz5JBcaqMP5_CsUwv-6Wy3UbadjSeYsmz1GlW8OJlKcSGE_G80]--></g></svg>