<svg xmlns="http://www.w3.org/2000/svg" xmlns:xlink="http://www.w3.org/1999/xlink" contentStyleType="text/css" height="541px" preserveAspectRatio="none" style="width:990px;height:541px;background:#FFFFFF;" version="1.1" viewBox="0 0 990 541" width="990px" zoomAndPan="magnify"><defs/><g><!--cluster r-pan--><g id="cluster_r-pan"><path d="M8.5,6 L51.6504,6 A3.75,3.75 0 0 1 54.1504,8.5 L61.1504,28.2969 L980.5,28.2969 A2.5,2.5 0 0 1 983,30.7969 L983,532.11 A2.5,2.5 0 0 1 980.5,534.61 L8.5,534.61 A2.5,2.5 0 0 1 6,532.11 L6,8.5 A2.5,2.5 0 0 1 8.5,6 " fill="none" style="stroke:#000000;stroke-width:1.5;"/><line style="stroke:#000000;stroke-width:1.5;" x1="6" x2="61.1504" y1="28.2969" y2="28.2969"/><text fill="#000000" font-family="sans-serif" font-size="14" font-weight="bold" lengthAdjust="spacing" textLength="42.1504" x="10" y="20.9951">r-pan</text></g><!--cluster distribution--><g id="cluster_distribution"><path d="M657.5,57 L751.1133,57 A3.75,3.75 0 0 1 753.6133,59.5 L760.6133,79.2969 L792.5,79.2969 A2.5,2.5 0 0 1 795,81.7969 L795,205.52 A2.5,2.5 0 0 1 792.5,208.02 L657.5,208.02 A2.5,2.5 0 0 1 655,205.52 L655,59.5 A2.5,2.5 0 0 1 657.5,57 " fill="none" style="stroke:#000000;stroke-width:1.5;"/><line style="stroke:#000000;stroke-width:1.5;" x1="655" x2="760.6133" y1="79.2969" y2="79.2969"/><text fill="#000000" font-family="sans-serif" font-size="14" font-weight="bold" lengthAdjust="spacing" textLength="92.6133" x="659" y="71.9951">distribution</text></g><!--cluster framework (pom)--><g id="cluster_framework (pom)"><path d="M32.5,240.02 L170.6904,240.02 A3.75,3.75 0 0 1 173.1904,242.52 L180.1904,262.3169 L956.5,262.3169 A2.5,2.5 0 0 1 959,264.8169 L959,508.11 A2.5,2.5 0 0 1 956.5,510.61 L32.5,510.61 A2.5,2.5 0 0 1 30,508.11 L30,242.52 A2.5,2.5 0 0 1 32.5,240.02 " fill="none" style="stroke:#000000;stroke-width:1.5;"/><line style="stroke:#000000;stroke-width:1.5;" x1="30" x2="180.1904" y1="262.3169" y2="262.3169"/><text fill="#000000" font-family="sans-serif" font-size="14" font-weight="bold" lengthAdjust="spacing" textLength="137.1904" x="34" y="255.0151">framework (pom)</text></g><!--cluster cache (pom)--><g id="cluster_cache (pom)"><path d="M56.5,283.02 L154.9053,283.02 A3.75,3.75 0 0 1 157.4053,285.52 L164.4053,305.3169 L381.5,305.3169 A2.5,2.5 0 0 1 384,307.8169 L384,484.11 A2.5,2.5 0 0 1 381.5,486.61 L56.5,486.61 A2.5,2.5 0 0 1 54,484.11 L54,285.52 A2.5,2.5 0 0 1 56.5,283.02 " fill="none" style="stroke:#000000;stroke-width:1.5;"/><line style="stroke:#000000;stroke-width:1.5;" x1="54" x2="164.4053" y1="305.3169" y2="305.3169"/><text fill="#000000" font-family="sans-serif" font-size="14" font-weight="bold" lengthAdjust="spacing" textLength="97.4053" x="58" y="298.0151">cache (pom)</text></g><!--cluster orm (pom)--><g id="cluster_orm (pom)"><path d="M646.5,283.02 L730.5088,283.02 A3.75,3.75 0 0 1 733.0088,285.52 L740.0088,305.3169 L803.5,305.3169 A2.5,2.5 0 0 1 806,307.8169 L806,377.81 A2.5,2.5 0 0 1 803.5,380.31 L646.5,380.31 A2.5,2.5 0 0 1 644,377.81 L644,285.52 A2.5,2.5 0 0 1 646.5,283.02 " fill="none" style="stroke:#000000;stroke-width:1.5;"/><line style="stroke:#000000;stroke-width:1.5;" x1="644" x2="740.0088" y1="305.3169" y2="305.3169"/><text fill="#000000" font-family="sans-serif" font-size="14" font-weight="bold" lengthAdjust="spacing" textLength="83.0088" x="648" y="298.0151">orm (pom)</text></g><!--entity server--><g id="elem_server"><path d="M681.37,144.72 L744.6278,144.72 A3.75,3.75 0 0 1 747.1278,147.22 L754.1278,167.0169 L768.6278,167.0169 A2.5,2.5 0 0 1 771.1278,169.5169 L771.1278,181.5169 A2.5,2.5 0 0 1 768.6278,184.0169 L681.37,184.0169 A2.5,2.5 0 0 1 678.87,181.5169 L678.87,147.22 A2.5,2.5 0 0 1 681.37,144.72 " fill="#F1F1F1" style="stroke:#181818;stroke-width:0.5;"/><line style="stroke:#181818;stroke-width:0.5;" x1="678.87" x2="754.1278" y1="167.0169" y2="167.0169"/><text fill="#000000" font-family="sans-serif" font-size="14" font-weight="bold" lengthAdjust="spacing" textLength="50.2578" x="688.87" y="160.7151">server</text></g><!--entity cache-caffeine--><g id="elem_cache-caffeine"><rect fill="#F1F1F1" height="46.2969" rx="2.5" ry="2.5" style="stroke:#181818;stroke-width:0.5;" width="142.6348" x="69.68" y="318.02"/><rect fill="#F1F1F1" height="10" style="stroke:#181818;stroke-width:0.5;" width="15" x="192.3148" y="323.02"/><rect fill="#F1F1F1" height="2" style="stroke:#181818;stroke-width:0.5;" width="4" x="190.3148" y="325.02"/><rect fill="#F1F1F1" height="2" style="stroke:#181818;stroke-width:0.5;" width="4" x="190.3148" y="329.02"/><text fill="#000000" font-family="sans-serif" font-size="14" lengthAdjust="spacing" textLength="102.6348" x="84.68" y="351.0151">cache-caffeine</text></g><!--entity cache-core--><g id="elem_cache-core"><rect fill="#F1F1F1" height="46.2969" rx="2.5" ry="2.5" style="stroke:#181818;stroke-width:0.5;" width="117.1436" x="249.43" y="424.31"/><rect fill="#F1F1F1" height="10" style="stroke:#181818;stroke-width:0.5;" width="15" x="346.5736" y="429.31"/><rect fill="#F1F1F1" height="2" style="stroke:#181818;stroke-width:0.5;" width="4" x="344.5736" y="431.31"/><rect fill="#F1F1F1" height="2" style="stroke:#181818;stroke-width:0.5;" width="4" x="344.5736" y="435.31"/><text fill="#000000" font-family="sans-serif" font-size="14" lengthAdjust="spacing" textLength="77.1436" x="264.43" y="457.3051">cache-core</text></g><!--entity cache-redis--><g id="elem_cache-redis"><rect fill="#F1F1F1" height="46.2969" rx="2.5" ry="2.5" style="stroke:#181818;stroke-width:0.5;" width="120.9512" x="247.52" y="318.02"/><rect fill="#F1F1F1" height="10" style="stroke:#181818;stroke-width:0.5;" width="15" x="348.4712" y="323.02"/><rect fill="#F1F1F1" height="2" style="stroke:#181818;stroke-width:0.5;" width="4" x="346.4712" y="325.02"/><rect fill="#F1F1F1" height="2" style="stroke:#181818;stroke-width:0.5;" width="4" x="346.4712" y="329.02"/><text fill="#000000" font-family="sans-serif" font-size="14" lengthAdjust="spacing" textLength="80.9512" x="262.52" y="351.0151">cache-redis</text></g><!--entity core--><g id="elem_core"><path d="M689.34,427.81 L736.6564,427.81 A3.75,3.75 0 0 1 739.1564,430.31 L746.1564,450.1069 L760.6564,450.1069 A2.5,2.5 0 0 1 763.1564,452.6069 L763.1564,464.6069 A2.5,2.5 0 0 1 760.6564,467.1069 L689.34,467.1069 A2.5,2.5 0 0 1 686.84,464.6069 L686.84,430.31 A2.5,2.5 0 0 1 689.34,427.81 " fill="#F1F1F1" style="stroke:#181818;stroke-width:0.5;"/><line style="stroke:#181818;stroke-width:0.5;" x1="686.84" x2="746.1564" y1="450.1069" y2="450.1069"/><text fill="#000000" font-family="sans-serif" font-size="14" font-weight="bold" lengthAdjust="spacing" textLength="34.3164" x="696.84" y="443.8051">core</text></g><!--entity mybatis-plus--><g id="elem_mybatis-plus"><rect fill="#F1F1F1" height="46.2969" rx="2.5" ry="2.5" style="stroke:#181818;stroke-width:0.5;" width="130.0566" x="659.97" y="318.02"/><rect fill="#F1F1F1" height="10" style="stroke:#181818;stroke-width:0.5;" width="15" x="770.0266" y="323.02"/><rect fill="#F1F1F1" height="2" style="stroke:#181818;stroke-width:0.5;" width="4" x="768.0266" y="325.02"/><rect fill="#F1F1F1" height="2" style="stroke:#181818;stroke-width:0.5;" width="4" x="768.0266" y="329.02"/><text fill="#000000" font-family="sans-serif" font-size="14" lengthAdjust="spacing" textLength="90.0566" x="674.97" y="351.0151">mybatis-plus</text></g><!--entity schedule--><g id="elem_schedule"><path d="M406.31,321.52 L489.686,321.52 A3.75,3.75 0 0 1 492.186,324.02 L499.186,343.8169 L513.686,343.8169 A2.5,2.5 0 0 1 516.186,346.3169 L516.186,358.3169 A2.5,2.5 0 0 1 513.686,360.8169 L406.31,360.8169 A2.5,2.5 0 0 1 403.81,358.3169 L403.81,324.02 A2.5,2.5 0 0 1 406.31,321.52 " fill="#F1F1F1" style="stroke:#181818;stroke-width:0.5;"/><line style="stroke:#181818;stroke-width:0.5;" x1="403.81" x2="499.186" y1="343.8169" y2="343.8169"/><text fill="#000000" font-family="sans-serif" font-size="14" font-weight="bold" lengthAdjust="spacing" textLength="70.376" x="413.81" y="337.5151">schedule</text></g><!--entity swagger2--><g id="elem_swagger2"><path d="M827.05,321.52 L916.9475,321.52 A3.75,3.75 0 0 1 919.4475,324.02 L926.4475,343.8169 L940.9475,343.8169 A2.5,2.5 0 0 1 943.4475,346.3169 L943.4475,358.3169 A2.5,2.5 0 0 1 940.9475,360.8169 L827.05,360.8169 A2.5,2.5 0 0 1 824.55,358.3169 L824.55,324.02 A2.5,2.5 0 0 1 827.05,321.52 " fill="#F1F1F1" style="stroke:#181818;stroke-width:0.5;"/><line style="stroke:#181818;stroke-width:0.5;" x1="824.55" x2="926.4475" y1="343.8169" y2="343.8169"/><text fill="#000000" font-family="sans-serif" font-size="14" font-weight="bold" lengthAdjust="spacing" textLength="76.8975" x="834.55" y="337.5151">swagger2</text></g><!--entity web--><g id="elem_web"><path d="M553.27,321.52 L598.7202,321.52 A3.75,3.75 0 0 1 601.2202,324.02 L608.2202,343.8169 L622.7202,343.8169 A2.5,2.5 0 0 1 625.2202,346.3169 L625.2202,358.3169 A2.5,2.5 0 0 1 622.7202,360.8169 L553.27,360.8169 A2.5,2.5 0 0 1 550.77,358.3169 L550.77,324.02 A2.5,2.5 0 0 1 553.27,321.52 " fill="#F1F1F1" style="stroke:#181818;stroke-width:0.5;"/><line style="stroke:#181818;stroke-width:0.5;" x1="550.77" x2="608.2202" y1="343.8169" y2="343.8169"/><text fill="#000000" font-family="sans-serif" font-size="14" font-weight="bold" lengthAdjust="spacing" textLength="32.4502" x="560.77" y="337.5151">web</text></g><!--link distribution to server--><g id="link_distribution_server"><path d="M725,84.95 C725,88.04 725,116.38 725,138.58 " fill="none" id="distribution-to-server" style="stroke:#181818;stroke-width:1.0;"/><polygon fill="#181818" points="725,144.58,729,135.58,725,139.58,721,135.58,725,144.58" style="stroke:#181818;stroke-width:1.0;"/></g><!--link cache-caffeine to cache-core--><g id="link_cache-caffeine_cache-core"><path d="M177.24,364.8 C205.25,382.29 238.7509,403.2118 266.7409,420.6918 " fill="none" id="cache-caffeine-to-cache-core" style="stroke:#181818;stroke-width:1.0;"/><polygon fill="#181818" points="271.83,423.87,266.3151,415.71,267.5891,421.2215,262.0775,422.4954,271.83,423.87" style="stroke:#181818;stroke-width:1.0;"/></g><!--link cache-redis to cache-core--><g id="link_cache-redis_cache-core"><path d="M308,364.8 C308,382.29 308,400.39 308,417.87 " fill="none" id="cache-redis-to-cache-core" style="stroke:#181818;stroke-width:1.0;"/><polygon fill="#181818" points="308,423.87,312,414.87,308,418.87,304,414.87,308,423.87" style="stroke:#181818;stroke-width:1.0;"/></g><!--link mybatis-plus to core--><g id="link_mybatis-plus_core"><path d="M725,364.8 C725,383.49 725,403.72 725,421.37 " fill="none" id="mybatis-plus-to-core" style="stroke:#181818;stroke-width:1.0;"/><polygon fill="#181818" points="725,427.37,729,418.37,725,422.37,721,418.37,725,427.37" style="stroke:#181818;stroke-width:1.0;"/></g><!--link schedule to cache-core--><g id="link_schedule_cache-core"><path d="M432.12,361.29 C406.41,378.94 373.1571,401.745 345.9371,420.425 " fill="none" id="schedule-to-cache-core" style="stroke:#181818;stroke-width:1.0;"/><polygon fill="#181818" points="340.99,423.82,350.674,422.0256,345.1126,420.9908,346.1473,415.4294,340.99,423.82" style="stroke:#181818;stroke-width:1.0;"/></g><!--link swagger2 to core--><g id="link_swagger2_core"><path d="M854.84,361.29 C826.15,380.11 787.6172,427.6864 758.9972,446.4564 " fill="none" id="swagger2-to-core" style="stroke:#181818;stroke-width:1.0;"/><polygon fill="#181818" points="753.98,449.7469,763.6995,448.156,758.161,447.0048,759.3122,441.4663,753.98,449.7469" style="stroke:#181818;stroke-width:1.0;"/></g><!--link web to core--><g id="link_web_core"><path d="M610.34,361.15 C620.49,369.62 632.72,379.63 644,388.31 C661.56,401.83 676.9031,412.9072 692.7631,424.0672 " fill="none" id="web-to-core" style="stroke:#181818;stroke-width:1.0;"/><polygon fill="#181818" points="697.67,427.52,692.6115,419.0695,693.5809,424.6427,688.0077,425.6121,697.67,427.52" style="stroke:#181818;stroke-width:1.0;"/></g><!--link server to web--><g id="link_server_web"><path d="M696.65,184.25 C679.86,196.45 659,213.47 644,232.02 C621.4,259.96 606.3424,297.7938 597.2824,320.5138 " fill="none" id="server-to-web" style="stroke:#181818;stroke-width:1.0;"/><polygon fill="#181818" points="595.06,326.087,602.1091,319.2088,596.912,321.4427,594.6781,316.2456,595.06,326.087" style="stroke:#181818;stroke-width:1.0;"/></g><!--link server to mybatis-plus--><g id="link_server_mybatis-plus"><path d="M725,184.41 C725,216.88 725,276.83 725,311.58 " fill="none" id="server-to-mybatis-plus" style="stroke:#181818;stroke-width:1.0;"/><polygon fill="#181818" points="725,317.58,729,308.58,725,312.58,721,308.58,725,317.58" style="stroke:#181818;stroke-width:1.0;"/></g><!--link server to swagger2--><g id="link_server_swagger2"><path d="M751.65,184.51 C768.21,197.05 789.43,214.35 806,232.02 C832.77,260.55 854.994,293.462 869.174,315.992 " fill="none" id="server-to-swagger2" style="stroke:#181818;stroke-width:1.0;"/><polygon fill="#181818" points="872.37,321.07,870.9613,311.3224,869.7067,316.8384,864.1907,315.5837,872.37,321.07" style="stroke:#181818;stroke-width:1.0;"/></g><!--SRC=[bL913eCW4Bpt5SHJU-3I1_GZnWFYQeaYPD6Qfl7lHKMYHMsxnvbXPe3LZ9Ui018XrQoEoEj4xEWPpOHfKAHj8vGdXucNH48elP7O03u0ar7JhsroP18wXIKvQoKlIoUluOpV8UJ7j96ZdEKvY1fSdWCLGhAbHh0T3wJzHWKhM6PlI1JAdOxocR966AghriT-2pIsLjPM49ZDn7_zJSUA0l0QsZdYrruTf867nGwEVtpuj0khZN7hCLaCPZlKwXrtDFu-Bhj_0m00]--></g></svg>