<svg xmlns="http://www.w3.org/2000/svg" xmlns:xlink="http://www.w3.org/1999/xlink" contentStyleType="text/css" height="453px" preserveAspectRatio="none" style="width:1388px;height:453px;background:#FFFFFF;" version="1.1" viewBox="0 0 1388 453" width="1388px" zoomAndPan="magnify"><defs/><g><!--entity distribution--><g id="elem_distribution"><rect fill="#F1F1F1" height="46.2969" rx="2.5" ry="2.5" style="stroke:#181818;stroke-width:0.5;" width="119.7822" x="169.37" y="7"/><rect fill="#F1F1F1" height="10" style="stroke:#181818;stroke-width:0.5;" width="15" x="269.1522" y="12"/><rect fill="#F1F1F1" height="2" style="stroke:#181818;stroke-width:0.5;" width="4" x="267.1522" y="14"/><rect fill="#F1F1F1" height="2" style="stroke:#181818;stroke-width:0.5;" width="4" x="267.1522" y="18"/><text fill="#000000" font-family="sans-serif" font-size="14" lengthAdjust="spacing" textLength="79.7822" x="184.37" y="39.9951">distribution</text></g><!--entity server--><g id="elem_server"><rect fill="#F1F1F1" height="46.2969" rx="2.5" ry="2.5" style="stroke:#181818;stroke-width:0.5;" width="84.3174" x="187.1" y="142.41"/><rect fill="#F1F1F1" height="10" style="stroke:#181818;stroke-width:0.5;" width="15" x="251.4174" y="147.41"/><rect fill="#F1F1F1" height="2" style="stroke:#181818;stroke-width:0.5;" width="4" x="249.4174" y="149.41"/><rect fill="#F1F1F1" height="2" style="stroke:#181818;stroke-width:0.5;" width="4" x="249.4174" y="153.41"/><text fill="#000000" font-family="sans-serif" font-size="14" lengthAdjust="spacing" textLength="44.3174" x="202.1" y="175.4051">server</text></g><!--entity cache-caffeine--><g id="elem_cache-caffeine"><rect fill="#F1F1F1" height="46.2969" rx="2.5" ry="2.5" style="stroke:#181818;stroke-width:0.5;" width="142.6348" x="518.94" y="142.41"/><rect fill="#F1F1F1" height="10" style="stroke:#181818;stroke-width:0.5;" width="15" x="641.5748" y="147.41"/><rect fill="#F1F1F1" height="2" style="stroke:#181818;stroke-width:0.5;" width="4" x="639.5748" y="149.41"/><rect fill="#F1F1F1" height="2" style="stroke:#181818;stroke-width:0.5;" width="4" x="639.5748" y="153.41"/><text fill="#000000" font-family="sans-serif" font-size="14" lengthAdjust="spacing" textLength="102.6348" x="533.94" y="175.4051">cache-caffeine</text></g><!--entity cache-core--><g id="elem_cache-core"><rect fill="#F1F1F1" height="46.2969" rx="2.5" ry="2.5" style="stroke:#181818;stroke-width:0.5;" width="117.1436" x="771.68" y="277.83"/><rect fill="#F1F1F1" height="10" style="stroke:#181818;stroke-width:0.5;" width="15" x="868.8236" y="282.83"/><rect fill="#F1F1F1" height="2" style="stroke:#181818;stroke-width:0.5;" width="4" x="866.8236" y="284.83"/><rect fill="#F1F1F1" height="2" style="stroke:#181818;stroke-width:0.5;" width="4" x="866.8236" y="288.83"/><text fill="#000000" font-family="sans-serif" font-size="14" lengthAdjust="spacing" textLength="77.1436" x="786.68" y="310.8251">cache-core</text></g><!--entity cache-redis--><g id="elem_cache-redis"><rect fill="#F1F1F1" height="46.2969" rx="2.5" ry="2.5" style="stroke:#181818;stroke-width:0.5;" width="120.9512" x="696.78" y="142.41"/><rect fill="#F1F1F1" height="10" style="stroke:#181818;stroke-width:0.5;" width="15" x="797.7312" y="147.41"/><rect fill="#F1F1F1" height="2" style="stroke:#181818;stroke-width:0.5;" width="4" x="795.7312" y="149.41"/><rect fill="#F1F1F1" height="2" style="stroke:#181818;stroke-width:0.5;" width="4" x="795.7312" y="153.41"/><text fill="#000000" font-family="sans-serif" font-size="14" lengthAdjust="spacing" textLength="80.9512" x="711.78" y="175.4051">cache-redis</text></g><!--entity schedule--><g id="elem_schedule"><rect fill="#F1F1F1" height="46.2969" rx="2.5" ry="2.5" style="stroke:#181818;stroke-width:0.5;" width="102.7402" x="852.89" y="142.41"/><rect fill="#F1F1F1" height="10" style="stroke:#181818;stroke-width:0.5;" width="15" x="935.6302" y="147.41"/><rect fill="#F1F1F1" height="2" style="stroke:#181818;stroke-width:0.5;" width="4" x="933.6302" y="149.41"/><rect fill="#F1F1F1" height="2" style="stroke:#181818;stroke-width:0.5;" width="4" x="933.6302" y="153.41"/><text fill="#000000" font-family="sans-serif" font-size="14" lengthAdjust="spacing" textLength="62.7402" x="867.89" y="175.4051">schedule</text></g><!--entity mybatis-plus--><g id="elem_mybatis-plus"><rect fill="#F1F1F1" height="46.2969" rx="2.5" ry="2.5" style="stroke:#181818;stroke-width:0.5;" width="130.0566" x="30.23" y="277.83"/><rect fill="#F1F1F1" height="10" style="stroke:#181818;stroke-width:0.5;" width="15" x="140.2866" y="282.83"/><rect fill="#F1F1F1" height="2" style="stroke:#181818;stroke-width:0.5;" width="4" x="138.2866" y="284.83"/><rect fill="#F1F1F1" height="2" style="stroke:#181818;stroke-width:0.5;" width="4" x="138.2866" y="288.83"/><text fill="#000000" font-family="sans-serif" font-size="14" lengthAdjust="spacing" textLength="90.0566" x="45.23" y="310.8251">mybatis-plus</text></g><!--entity core--><g id="elem_core"><rect fill="#F1F1F1" height="46.2969" rx="2.5" ry="2.5" style="stroke:#181818;stroke-width:0.5;" width="70.6318" x="213.94" y="401.12"/><rect fill="#F1F1F1" height="10" style="stroke:#181818;stroke-width:0.5;" width="15" x="264.5718" y="406.12"/><rect fill="#F1F1F1" height="2" style="stroke:#181818;stroke-width:0.5;" width="4" x="262.5718" y="408.12"/><rect fill="#F1F1F1" height="2" style="stroke:#181818;stroke-width:0.5;" width="4" x="262.5718" y="412.12"/><text fill="#000000" font-family="sans-serif" font-size="14" lengthAdjust="spacing" textLength="30.6318" x="228.94" y="434.1151">core</text></g><!--entity swagger2--><g id="elem_swagger2"><rect fill="#F1F1F1" height="46.2969" rx="2.5" ry="2.5" style="stroke:#181818;stroke-width:0.5;" width="108.373" x="195.07" y="277.83"/><rect fill="#F1F1F1" height="10" style="stroke:#181818;stroke-width:0.5;" width="15" x="283.443" y="282.83"/><rect fill="#F1F1F1" height="2" style="stroke:#181818;stroke-width:0.5;" width="4" x="281.443" y="284.83"/><rect fill="#F1F1F1" height="2" style="stroke:#181818;stroke-width:0.5;" width="4" x="281.443" y="288.83"/><text fill="#000000" font-family="sans-serif" font-size="14" lengthAdjust="spacing" textLength="68.373" x="210.07" y="310.8251">swagger2</text></g><!--entity web--><g id="elem_web"><rect fill="#F1F1F1" height="46.2969" rx="2.5" ry="2.5" style="stroke:#181818;stroke-width:0.5;" width="68.9502" x="338.78" y="277.83"/><rect fill="#F1F1F1" height="10" style="stroke:#181818;stroke-width:0.5;" width="15" x="387.7302" y="282.83"/><rect fill="#F1F1F1" height="2" style="stroke:#181818;stroke-width:0.5;" width="4" x="385.7302" y="284.83"/><rect fill="#F1F1F1" height="2" style="stroke:#181818;stroke-width:0.5;" width="4" x="385.7302" y="288.83"/><text fill="#000000" font-family="sans-serif" font-size="14" lengthAdjust="spacing" textLength="28.9502" x="353.78" y="310.8251">web</text></g><!--entity storage-engine-fastdfs--><g id="elem_storage-engine-fastdfs"><rect fill="#F1F1F1" height="46.2969" rx="2.5" ry="2.5" style="stroke:#181818;stroke-width:0.5;" width="198.4365" x="756.04" y="7"/><rect fill="#F1F1F1" height="10" style="stroke:#181818;stroke-width:0.5;" width="15" x="934.4765" y="12"/><rect fill="#F1F1F1" height="2" style="stroke:#181818;stroke-width:0.5;" width="4" x="932.4765" y="14"/><rect fill="#F1F1F1" height="2" style="stroke:#181818;stroke-width:0.5;" width="4" x="932.4765" y="18"/><text fill="#000000" font-family="sans-serif" font-size="14" lengthAdjust="spacing" textLength="158.4365" x="771.04" y="39.9951">storage-engine-fastdfs</text></g><!--entity storage-engine-core--><g id="elem_storage-engine-core"><rect fill="#F1F1F1" height="46.2969" rx="2.5" ry="2.5" style="stroke:#181818;stroke-width:0.5;" width="181.668" x="990.42" y="142.41"/><rect fill="#F1F1F1" height="10" style="stroke:#181818;stroke-width:0.5;" width="15" x="1152.088" y="147.41"/><rect fill="#F1F1F1" height="2" style="stroke:#181818;stroke-width:0.5;" width="4" x="1150.088" y="149.41"/><rect fill="#F1F1F1" height="2" style="stroke:#181818;stroke-width:0.5;" width="4" x="1150.088" y="153.41"/><text fill="#000000" font-family="sans-serif" font-size="14" lengthAdjust="spacing" textLength="141.668" x="1005.42" y="175.4051">storage-engine-core</text></g><!--entity storage-engine-local--><g id="elem_storage-engine-local"><rect fill="#F1F1F1" height="46.2969" rx="2.5" ry="2.5" style="stroke:#181818;stroke-width:0.5;" width="183.6572" x="989.43" y="7"/><rect fill="#F1F1F1" height="10" style="stroke:#181818;stroke-width:0.5;" width="15" x="1153.0872" y="12"/><rect fill="#F1F1F1" height="2" style="stroke:#181818;stroke-width:0.5;" width="4" x="1151.0872" y="14"/><rect fill="#F1F1F1" height="2" style="stroke:#181818;stroke-width:0.5;" width="4" x="1151.0872" y="18"/><text fill="#000000" font-family="sans-serif" font-size="14" lengthAdjust="spacing" textLength="143.6572" x="1004.43" y="39.9951">storage-engine-local</text></g><!--entity storage-engine-oss--><g id="elem_storage-engine-oss"><rect fill="#F1F1F1" height="46.2969" rx="2.5" ry="2.5" style="stroke:#181818;stroke-width:0.5;" width="174.1895" x="1208.16" y="7"/><rect fill="#F1F1F1" height="10" style="stroke:#181818;stroke-width:0.5;" width="15" x="1362.3495" y="12"/><rect fill="#F1F1F1" height="2" style="stroke:#181818;stroke-width:0.5;" width="4" x="1360.3495" y="14"/><rect fill="#F1F1F1" height="2" style="stroke:#181818;stroke-width:0.5;" width="4" x="1360.3495" y="18"/><text fill="#000000" font-family="sans-serif" font-size="14" lengthAdjust="spacing" textLength="134.1895" x="1223.16" y="39.9951">storage-engine-oss</text></g><g id="elem_GMN30"><path d="M306.78,130.3 L306.78,161.56 L271.73,165.56 L306.78,169.56 L306.78,200.8313 A0,0 0 0 0 306.78,200.8313 L483.7229,200.8313 A0,0 0 0 0 483.7229,200.8313 L483.7229,140.3 L473.7229,130.3 L306.78,130.3 A0,0 0 0 0 306.78,130.3 " fill="#FEFFDD" style="stroke:#181818;stroke-width:0.5;"/><path d="M473.7229,130.3 L473.7229,140.3 L483.7229,140.3 L473.7229,130.3 " fill="#FEFFDD" style="stroke:#181818;stroke-width:0.5;"/><text fill="#000000" font-family="sans-serif" font-size="13" lengthAdjust="spacing" textLength="125.5123" x="312.78" y="147.3669">&#36873;&#25321;&#24615;&#24341;&#29992; &#23384;&#20648;&#24341;&#25806;:</text><text fill="#000000" font-family="sans-serif" font-size="13" lengthAdjust="spacing" textLength="155.9429" x="312.78" y="162.4997">- storage-engine-fastdfs</text><text fill="#000000" font-family="sans-serif" font-size="13" lengthAdjust="spacing" textLength="142.2192" x="312.78" y="177.6325">- storage-engine-local</text><text fill="#000000" font-family="sans-serif" font-size="13" lengthAdjust="spacing" textLength="133.4277" x="312.78" y="192.7653">- storage-engine-oss</text></g><g id="elem_GMN33"><path d="M6,137.86 L6,193.2584 A0,0 0 0 0 6,193.2584 L152.5123,193.2584 A0,0 0 0 0 152.5123,193.2584 L152.5123,169.56 L186.84,165.56 L152.5123,161.56 L152.5123,147.86 L142.5123,137.86 L6,137.86 A0,0 0 0 0 6,137.86 " fill="#FEFFDD" style="stroke:#181818;stroke-width:0.5;"/><path d="M142.5123,137.86 L142.5123,147.86 L152.5123,147.86 L142.5123,137.86 " fill="#FEFFDD" style="stroke:#181818;stroke-width:0.5;"/><text fill="#000000" font-family="sans-serif" font-size="13" lengthAdjust="spacing" textLength="125.5123" x="12" y="154.9269">&#36873;&#25321;&#24615;&#24341;&#29992; &#32531;&#23384;&#26041;&#26696;:</text><text fill="#000000" font-family="sans-serif" font-size="13" lengthAdjust="spacing" textLength="104.127" x="12" y="170.0597">- cache-caffeine</text><text fill="#000000" font-family="sans-serif" font-size="13" lengthAdjust="spacing" textLength="83.9922" x="12" y="185.1925">- cache-redis</text></g><!--link distribution to server--><g id="link_distribution_server"><path d="M229.26,53.78 C229.26,78.46 229.26,111.71 229.26,136.26 " fill="none" id="distribution-to-server" style="stroke:#181818;stroke-width:1.0;"/><polygon fill="#181818" points="229.26,142.26,233.26,133.26,229.26,137.26,225.26,133.26,229.26,142.26" style="stroke:#181818;stroke-width:1.0;"/><text fill="#000000" font-family="sans-serif" font-size="13" lengthAdjust="spacing" textLength="78.0001" x="230.26" y="96.3669">&#25171;&#21253;&#21518;&#31471;&#26381;&#21153;</text></g><!--link cache-caffeine to cache-core--><g id="link_cache-caffeine_cache-core"><path d="M597.5,189.16 C604.54,207.59 617.03,232.93 636.26,247.83 C675.13,277.94 724.08,289.927 765.57,295.317 " fill="none" id="cache-caffeine-to-cache-core" style="stroke:#181818;stroke-width:1.0;"/><polygon fill="#181818" points="771.52,296.09,763.1103,290.9639,766.5617,295.4459,762.0797,298.8972,771.52,296.09" style="stroke:#181818;stroke-width:1.0;"/><text fill="#000000" font-family="sans-serif" font-size="13" lengthAdjust="spacing" textLength="104.0001" x="637.26" y="243.8969">&#20381;&#36182;&#20844;&#29992;&#32531;&#23384;&#27169;&#22359;</text></g><!--link cache-redis to cache-core--><g id="link_cache-redis_cache-core"><path d="M751.11,188.92 C747.68,206.03 745.78,229.69 755.26,247.83 C761.57,259.91 767.1767,266.345 778.3867,274.105 " fill="none" id="cache-redis-to-cache-core" style="stroke:#181818;stroke-width:1.0;"/><polygon fill="#181818" points="783.32,277.52,778.1967,269.1086,779.2089,274.6741,773.6433,275.6863,783.32,277.52" style="stroke:#181818;stroke-width:1.0;"/><text fill="#000000" font-family="sans-serif" font-size="13" lengthAdjust="spacing" textLength="104.0001" x="756.26" y="243.8969">&#20381;&#36182;&#20844;&#29992;&#32531;&#23384;&#27169;&#22359;</text></g><!--link schedule to cache-core--><g id="link_schedule_cache-core"><path d="M894.5,189.08 C887.08,205.64 876.28,228.53 865.26,247.83 C859.52,257.86 855.9248,263.5827 849.7148,272.6327 " fill="none" id="schedule-to-cache-core" style="stroke:#181818;stroke-width:1.0;"/><polygon fill="#181818" points="846.32,277.58,854.7103,272.4223,849.149,273.4573,848.114,267.8959,846.32,277.58" style="stroke:#181818;stroke-width:1.0;"/><text fill="#000000" font-family="sans-serif" font-size="13" lengthAdjust="spacing" textLength="104.0001" x="875.26" y="243.8969">&#20381;&#36182;&#20844;&#29992;&#32531;&#23384;&#27169;&#22359;</text></g><!--link mybatis-plus to core--><g id="link_mybatis-plus_core"><path d="M113.44,324.42 C125.74,338.78 142.87,357.26 160.26,371.12 C176.64,384.19 191.3717,393.3286 208.2517,402.5286 " fill="none" id="mybatis-plus-to-core" style="stroke:#181818;stroke-width:1.0;"/><polygon fill="#181818" points="213.52,405.4,207.5318,397.5807,209.1297,403.0072,203.7033,404.6052,213.52,405.4" style="stroke:#181818;stroke-width:1.0;"/><text fill="#000000" font-family="sans-serif" font-size="13" lengthAdjust="spacing" textLength="78.0001" x="161.26" y="367.1869">&#20381;&#36182;&#26680;&#24515;&#27169;&#22359;</text></g><!--link swagger2 to core--><g id="link_swagger2_core"><path d="M248.66,324.4 C248.37,337.93 248.11,355.52 248.26,371.12 C248.35,380.81 248.4157,385.5113 248.6057,394.6813 " fill="none" id="swagger2-to-core" style="stroke:#181818;stroke-width:1.0;"/><polygon fill="#181818" points="248.73,400.68,252.5427,391.5991,248.6264,395.6811,244.5444,391.7648,248.73,400.68" style="stroke:#181818;stroke-width:1.0;"/><text fill="#000000" font-family="sans-serif" font-size="13" lengthAdjust="spacing" textLength="78.0001" x="249.26" y="367.1869">&#20381;&#36182;&#26680;&#24515;&#27169;&#22359;</text></g><!--link web to core--><g id="link_web_core"><path d="M363.41,324.35 C356.25,338.86 345.5,357.53 332.26,371.12 C318.72,385.02 306.0057,393.9318 290.2657,402.8118 " fill="none" id="web-to-core" style="stroke:#181818;stroke-width:1.0;"/><polygon fill="#181818" points="285.04,405.76,294.844,404.8215,289.3948,403.3032,290.9131,397.8539,285.04,405.76" style="stroke:#181818;stroke-width:1.0;"/><text fill="#000000" font-family="sans-serif" font-size="13" lengthAdjust="spacing" textLength="78.0001" x="346.26" y="367.1869">&#20381;&#36182;&#26680;&#24515;&#27169;&#22359;</text></g><!--link storage-engine-fastdfs to storage-engine-core--><g id="link_storage-engine-fastdfs_storage-engine-core"><path d="M891.1,53.78 C912.97,67.46 941.57,85.14 967.26,100.3 C991.32,114.5 1013.3383,126.9702 1035.1683,139.1302 " fill="none" id="storage-engine-fastdfs-to-storage-engine-core" style="stroke:#181818;stroke-width:1.0;"/><polygon fill="#181818" points="1040.41,142.05,1034.494,134.1759,1036.042,139.6169,1030.601,141.1648,1040.41,142.05" style="stroke:#181818;stroke-width:1.0;"/><text fill="#000000" font-family="sans-serif" font-size="13" lengthAdjust="spacing" textLength="104.0001" x="968.26" y="96.3669">&#23454;&#29616;&#23384;&#20648;&#24341;&#25806;&#25509;&#21475;</text></g><!--link storage-engine-local to storage-engine-core--><g id="link_storage-engine-local_storage-engine-core"><path d="M1081.26,53.78 C1081.26,78.46 1081.26,111.71 1081.26,136.26 " fill="none" id="storage-engine-local-to-storage-engine-core" style="stroke:#181818;stroke-width:1.0;"/><polygon fill="#181818" points="1081.26,142.26,1085.26,133.26,1081.26,137.26,1077.26,133.26,1081.26,142.26" style="stroke:#181818;stroke-width:1.0;"/><text fill="#000000" font-family="sans-serif" font-size="13" lengthAdjust="spacing" textLength="104.0001" x="1082.26" y="96.3669">&#23454;&#29616;&#23384;&#20648;&#24341;&#25806;&#25509;&#21475;</text></g><!--link storage-engine-oss to storage-engine-core--><g id="link_storage-engine-oss_storage-engine-core"><path d="M1264.22,53.7 C1244.72,67.59 1218.87,85.52 1195.26,100.3 C1171.95,114.88 1150.4689,127.1415 1128.7489,139.0715 " fill="none" id="storage-engine-oss-to-storage-engine-core" style="stroke:#181818;stroke-width:1.0;"/><polygon fill="#181818" points="1123.49,141.96,1133.3041,141.1331,1127.8724,139.5529,1129.4527,134.1212,1123.49,141.96" style="stroke:#181818;stroke-width:1.0;"/><text fill="#000000" font-family="sans-serif" font-size="13" lengthAdjust="spacing" textLength="104.0001" x="1222.26" y="96.3669">&#23454;&#29616;&#23384;&#20648;&#24341;&#25806;&#25509;&#21475;</text></g><!--link storage-engine-core to cache-core--><g id="link_storage-engine-core_cache-core"><path d="M1060.64,188.99 C1042.96,207.06 1016.01,231.99 988.26,247.83 C957.52,265.36 925.8046,276.4667 895.0546,284.9367 " fill="none" id="storage-engine-core-to-cache-core" style="stroke:#181818;stroke-width:1.0;"/><polygon fill="#181818" points="889.27,286.53,899.0091,287.9964,894.0905,285.2022,896.8846,280.2836,889.27,286.53" style="stroke:#181818;stroke-width:1.0;"/><text fill="#000000" font-family="sans-serif" font-size="13" lengthAdjust="spacing" textLength="104.0001" x="1015.26" y="243.8969">&#20381;&#36182;&#20844;&#29992;&#32531;&#23384;&#27169;&#22359;</text></g><!--link server to web--><g id="link_server_web"><path d="M268.32,189.19 C295.91,205.37 328.88,225.25 334.26,230.83 C347.27,244.32 354.9621,257.5393 361.6521,272.0793 " fill="none" id="server-to-web" style="stroke:#181818;stroke-width:1.0;"/><polygon fill="#181818" points="364.16,277.53,364.0319,267.682,362.0701,272.9877,356.7643,271.0259,364.16,277.53" style="stroke:#181818;stroke-width:1.0;"/><text fill="#000000" font-family="sans-serif" font-size="13" lengthAdjust="spacing" textLength="78.8824" x="349.26" y="243.8969">&#36890;&#29992;web&#22788;&#29702;</text></g><!--link server to mybatis-plus--><g id="link_server_mybatis-plus"><path d="M191.21,189.1 C162.23,206.39 126.86,227.8 124.26,230.83 C112.72,244.26 107.0184,257.2035 102.5584,271.7535 " fill="none" id="server-to-mybatis-plus" style="stroke:#181818;stroke-width:1.0;"/><polygon fill="#181818" points="100.8,277.49,107.262,270.0575,102.2653,272.7095,99.6133,267.7129,100.8,277.49" style="stroke:#181818;stroke-width:1.0;"/><text fill="#000000" font-family="sans-serif" font-size="13" lengthAdjust="spacing" textLength="90.7462" x="125.26" y="243.8969">&#36873;&#25321; ORM &#26694;&#26550;</text></g><!--link server to swagger2--><g id="link_server_swagger2"><path d="M225.54,188.88 C223.5,205.35 222.12,228.21 226.26,247.83 C228.4,257.99 230.0662,263.1748 234.3462,272.1448 " fill="none" id="server-to-swagger2" style="stroke:#181818;stroke-width:1.0;"/><polygon fill="#181818" points="236.93,277.56,236.6644,267.7147,234.7768,273.0474,229.4442,271.1598,236.93,277.56" style="stroke:#181818;stroke-width:1.0;"/><text fill="#000000" font-family="sans-serif" font-size="13" lengthAdjust="spacing" textLength="102.6988" x="227.26" y="243.8969">API &#25991;&#26723;&#29983;&#25104;&#24037;&#20855;</text></g><!--SRC=[hLCzJy906DxxAoxTkpWoc3Ww68rhmr3QQsbIU-PQ96v41S6FIWAYCO8sICJukIYQ4FqptbN_XTTIgXJIGEBOzvwlUv-UgEYMZVLCpjQHcGQ2C0z42-8DYDCW1NXQgP638gawtkqZFJyaUoxFSQ8ioLaeo9AgGjs48IiS8Wm3vkTxy-kvGOftNhthzMla_fHsNT8yuOTq39drp5oB0PMSCRCf9wvjPYHRjuHr8nVPZlBevIlvsFwroakQ1l7SLE0yp4o3Owesmf861MXgR7U2AbcseWu3nGuZAVBGyfmdTXsorINzOrfpgDCXHsr-JCz0icJycngoafAbG98MDza_NfilabJRy6SCUFwMVS9tuOn1sHUvsl6g9Ju66wbwWA_G_HkmlBe4g5kYhPSu8-hQHo-iB0BQsALkswjVq7ALz3gas6DXJ6H3W7KjQmEaWe40Dz2cXMjsVHOA_Dr5YXF0vCB73uBcniUi0WwQ2l2zmmG6L9C2X1jil56tx0SOVQtH87X_aVGF]--></g></svg>