<svg xmlns="http://www.w3.org/2000/svg" xmlns:xlink="http://www.w3.org/1999/xlink" contentStyleType="text/css" height="250px" preserveAspectRatio="none" style="width:1379px;height:250px;background:#FFFFFF;" version="1.1" viewBox="0 0 1379 250" width="1379px" zoomAndPan="magnify"><defs/><g><!--cluster r-pan--><g id="cluster_r-pan"><path d="M8.5,6 L51.6504,6 A3.75,3.75 0 0 1 54.1504,8.5 L61.1504,28.2969 L1369.5,28.2969 A2.5,2.5 0 0 1 1372,30.7969 L1372,241.09 A2.5,2.5 0 0 1 1369.5,243.59 L8.5,243.59 A2.5,2.5 0 0 1 6,241.09 L6,8.5 A2.5,2.5 0 0 1 8.5,6 " fill="none" style="stroke:#000000;stroke-width:1.5;"/><line style="stroke:#000000;stroke-width:1.5;" x1="6" x2="61.1504" y1="28.2969" y2="28.2969"/><text fill="#000000" font-family="sans-serif" font-size="14" font-weight="bold" lengthAdjust="spacing" textLength="42.1504" x="10" y="20.9951">r-pan</text></g><!--cluster framework (pom)--><g id="cluster_framework (pom)"><path d="M32.5,49 L170.6904,49 A3.75,3.75 0 0 1 173.1904,51.5 L180.1904,71.2969 L1116.5,71.2969 A2.5,2.5 0 0 1 1119,73.7969 L1119,217.09 A2.5,2.5 0 0 1 1116.5,219.59 L32.5,219.59 A2.5,2.5 0 0 1 30,217.09 L30,51.5 A2.5,2.5 0 0 1 32.5,49 " fill="none" style="stroke:#000000;stroke-width:1.5;"/><line style="stroke:#000000;stroke-width:1.5;" x1="30" x2="180.1904" y1="71.2969" y2="71.2969"/><text fill="#000000" font-family="sans-serif" font-size="14" font-weight="bold" lengthAdjust="spacing" textLength="137.1904" x="34" y="63.9951">framework (pom)</text></g><!--cluster cache (pom)--><g id="cluster_cache (pom)"><path d="M56.5,92 L154.9053,92 A3.75,3.75 0 0 1 157.4053,94.5 L164.4053,114.2969 L504.5,114.2969 A2.5,2.5 0 0 1 507,116.7969 L507,193.09 A2.5,2.5 0 0 1 504.5,195.59 L56.5,195.59 A2.5,2.5 0 0 1 54,193.09 L54,94.5 A2.5,2.5 0 0 1 56.5,92 " fill="none" style="stroke:#000000;stroke-width:1.5;"/><line style="stroke:#000000;stroke-width:1.5;" x1="54" x2="164.4053" y1="114.2969" y2="114.2969"/><text fill="#000000" font-family="sans-serif" font-size="14" font-weight="bold" lengthAdjust="spacing" textLength="97.4053" x="58" y="106.9951">cache (pom)</text></g><!--cluster orm (pom)--><g id="cluster_orm (pom)"><path d="M533.5,92 L617.5088,92 A3.75,3.75 0 0 1 620.0088,94.5 L627.0088,114.2969 L682.5,114.2969 A2.5,2.5 0 0 1 685,116.7969 L685,193.09 A2.5,2.5 0 0 1 682.5,195.59 L533.5,195.59 A2.5,2.5 0 0 1 531,193.09 L531,94.5 A2.5,2.5 0 0 1 533.5,92 " fill="none" style="stroke:#000000;stroke-width:1.5;"/><line style="stroke:#000000;stroke-width:1.5;" x1="531" x2="627.0088" y1="114.2969" y2="114.2969"/><text fill="#000000" font-family="sans-serif" font-size="14" font-weight="bold" lengthAdjust="spacing" textLength="83.0088" x="535" y="106.9951">orm (pom)</text></g><path d="M1141.19,127 L1234.8033,127 A3.75,3.75 0 0 1 1237.3033,129.5 L1244.3033,149.2969 L1248.8033,149.2969 A2.5,2.5 0 0 1 1251.3033,151.7969 L1251.3033,177.0938 A2.5,2.5 0 0 1 1248.8033,179.5938 L1141.19,179.5938 A2.5,2.5 0 0 1 1138.69,177.0938 L1138.69,129.5 A2.5,2.5 0 0 1 1141.19,127 " fill="#F1F1F1" style="stroke:#181818;stroke-width:0.5;"/><line style="stroke:#181818;stroke-width:0.5;" x1="1138.69" x2="1244.3033" y1="149.2969" y2="149.2969"/><text fill="#000000" font-family="sans-serif" font-size="14" font-weight="bold" lengthAdjust="spacing" textLength="92.6133" x="1142.69" y="141.9951">distribution</text><path d="M73,127 L189.001,127 A3.75,3.75 0 0 1 191.501,129.5 L198.501,149.2969 L203.001,149.2969 A2.5,2.5 0 0 1 205.501,151.7969 L205.501,177.0938 A2.5,2.5 0 0 1 203.001,179.5938 L73,179.5938 A2.5,2.5 0 0 1 70.5,177.0938 L70.5,129.5 A2.5,2.5 0 0 1 73,127 " fill="#F1F1F1" style="stroke:#181818;stroke-width:0.5;"/><line style="stroke:#181818;stroke-width:0.5;" x1="70.5" x2="198.501" y1="149.2969" y2="149.2969"/><text fill="#000000" font-family="sans-serif" font-size="14" font-weight="bold" lengthAdjust="spacing" textLength="115.001" x="74.5" y="141.9951">cache-caffeine</text><path d="M242.68,127 L329.3138,127 A3.75,3.75 0 0 1 331.8138,129.5 L338.8138,149.2969 L343.3138,149.2969 A2.5,2.5 0 0 1 345.8138,151.7969 L345.8138,177.0938 A2.5,2.5 0 0 1 343.3138,179.5938 L242.68,179.5938 A2.5,2.5 0 0 1 240.18,177.0938 L240.18,129.5 A2.5,2.5 0 0 1 242.68,127 " fill="#F1F1F1" style="stroke:#181818;stroke-width:0.5;"/><line style="stroke:#181818;stroke-width:0.5;" x1="240.18" x2="338.8138" y1="149.2969" y2="149.2969"/><text fill="#000000" font-family="sans-serif" font-size="14" font-weight="bold" lengthAdjust="spacing" textLength="85.6338" x="244.18" y="141.9951">cache-core</text><path d="M383.06,127 L474.9301,127 A3.75,3.75 0 0 1 477.4301,129.5 L484.4301,149.2969 L488.9301,149.2969 A2.5,2.5 0 0 1 491.4301,151.7969 L491.4301,177.0938 A2.5,2.5 0 0 1 488.9301,179.5938 L383.06,179.5938 A2.5,2.5 0 0 1 380.56,177.0938 L380.56,129.5 A2.5,2.5 0 0 1 383.06,127 " fill="#F1F1F1" style="stroke:#181818;stroke-width:0.5;"/><line style="stroke:#181818;stroke-width:0.5;" x1="380.56" x2="484.4301" y1="149.2969" y2="149.2969"/><text fill="#000000" font-family="sans-serif" font-size="14" font-weight="bold" lengthAdjust="spacing" textLength="90.8701" x="384.56" y="141.9951">cache-redis</text><path d="M706.34,127 L741.6564,127 A3.75,3.75 0 0 1 744.1564,129.5 L751.1564,149.2969 L755.6564,149.2969 A2.5,2.5 0 0 1 758.1564,151.7969 L758.1564,177.0938 A2.5,2.5 0 0 1 755.6564,179.5938 L706.34,179.5938 A2.5,2.5 0 0 1 703.84,177.0938 L703.84,129.5 A2.5,2.5 0 0 1 706.34,127 " fill="#F1F1F1" style="stroke:#181818;stroke-width:0.5;"/><line style="stroke:#181818;stroke-width:0.5;" x1="703.84" x2="751.1564" y1="149.2969" y2="149.2969"/><text fill="#000000" font-family="sans-serif" font-size="14" font-weight="bold" lengthAdjust="spacing" textLength="34.3164" x="707.84" y="141.9951">core</text><path d="M549.53,127 L652.4675,127 A3.75,3.75 0 0 1 654.9675,129.5 L661.9675,149.2969 L666.4675,149.2969 A2.5,2.5 0 0 1 668.9675,151.7969 L668.9675,177.0938 A2.5,2.5 0 0 1 666.4675,179.5938 L549.53,179.5938 A2.5,2.5 0 0 1 547.03,177.0938 L547.03,129.5 A2.5,2.5 0 0 1 549.53,127 " fill="#F1F1F1" style="stroke:#181818;stroke-width:0.5;"/><line style="stroke:#181818;stroke-width:0.5;" x1="547.03" x2="661.9675" y1="149.2969" y2="149.2969"/><text fill="#000000" font-family="sans-serif" font-size="14" font-weight="bold" lengthAdjust="spacing" textLength="101.9375" x="551.03" y="141.9951">mybatis-plus</text><path d="M795.31,127 L866.686,127 A3.75,3.75 0 0 1 869.186,129.5 L876.186,149.2969 L880.686,149.2969 A2.5,2.5 0 0 1 883.186,151.7969 L883.186,177.0938 A2.5,2.5 0 0 1 880.686,179.5938 L795.31,179.5938 A2.5,2.5 0 0 1 792.81,177.0938 L792.81,129.5 A2.5,2.5 0 0 1 795.31,127 " fill="#F1F1F1" style="stroke:#181818;stroke-width:0.5;"/><line style="stroke:#181818;stroke-width:0.5;" x1="792.81" x2="876.186" y1="149.2969" y2="149.2969"/><text fill="#000000" font-family="sans-serif" font-size="14" font-weight="bold" lengthAdjust="spacing" textLength="70.376" x="796.81" y="141.9951">schedule</text><path d="M921.05,127 L998.9475,127 A3.75,3.75 0 0 1 1001.4475,129.5 L1008.4475,149.2969 L1012.9475,149.2969 A2.5,2.5 0 0 1 1015.4475,151.7969 L1015.4475,177.0938 A2.5,2.5 0 0 1 1012.9475,179.5938 L921.05,179.5938 A2.5,2.5 0 0 1 918.55,177.0938 L918.55,129.5 A2.5,2.5 0 0 1 921.05,127 " fill="#F1F1F1" style="stroke:#181818;stroke-width:0.5;"/><line style="stroke:#181818;stroke-width:0.5;" x1="918.55" x2="1008.4475" y1="149.2969" y2="149.2969"/><text fill="#000000" font-family="sans-serif" font-size="14" font-weight="bold" lengthAdjust="spacing" textLength="76.8975" x="922.55" y="141.9951">swagger2</text><path d="M1053.27,127 L1086.7202,127 A3.75,3.75 0 0 1 1089.2202,129.5 L1096.2202,149.2969 L1100.7202,149.2969 A2.5,2.5 0 0 1 1103.2202,151.7969 L1103.2202,177.0938 A2.5,2.5 0 0 1 1100.7202,179.5938 L1053.27,179.5938 A2.5,2.5 0 0 1 1050.77,177.0938 L1050.77,129.5 A2.5,2.5 0 0 1 1053.27,127 " fill="#F1F1F1" style="stroke:#181818;stroke-width:0.5;"/><line style="stroke:#181818;stroke-width:0.5;" x1="1050.77" x2="1096.2202" y1="149.2969" y2="149.2969"/><text fill="#000000" font-family="sans-serif" font-size="14" font-weight="bold" lengthAdjust="spacing" textLength="32.4502" x="1054.77" y="141.9951">web</text><path d="M1288.37,127 L1339.6278,127 A3.75,3.75 0 0 1 1342.1278,129.5 L1349.1278,149.2969 L1353.6278,149.2969 A2.5,2.5 0 0 1 1356.1278,151.7969 L1356.1278,177.0938 A2.5,2.5 0 0 1 1353.6278,179.5938 L1288.37,179.5938 A2.5,2.5 0 0 1 1285.87,177.0938 L1285.87,129.5 A2.5,2.5 0 0 1 1288.37,127 " fill="#F1F1F1" style="stroke:#181818;stroke-width:0.5;"/><line style="stroke:#181818;stroke-width:0.5;" x1="1285.87" x2="1349.1278" y1="149.2969" y2="149.2969"/><text fill="#000000" font-family="sans-serif" font-size="14" font-weight="bold" lengthAdjust="spacing" textLength="50.2578" x="1289.87" y="141.9951">server</text><!--SRC=[bP6n3iCW34JtVWNAr0ui_ID334K90HaegYh-FLdIAY4jYaVVE_bEzY07qCWwuXwcZhqlR1c_RdiJ8XcHed4ViMmHHM0nEnhOrJjxMwaD8q4-iDPhXajG2is4UwpyDJawPo1SYlrsb8C6knC7Y2FRg6XV0g89t8_ftFMmXExJs4eGCcYDT6zW6KLDxBuQa9v8tvUN6G00]--></g></svg>