<svg xmlns="http://www.w3.org/2000/svg" contentStyleType="text/css"
     height="590px" preserveAspectRatio="none" style="width:1374px;height:590px;background:#FFFFFF;" version="1.1"
     viewBox="0 0 1374 590" width="1374px" zoomAndPan="magnify">
    <defs/>
    <g><!--entity distribution-->
        <g id="elem_distribution">
            <rect fill="#F1F1F1" height="46.2969" rx="2.5" ry="2.5" style="stroke:#181818;stroke-width:0.5;"
                  width="119.7822" x="835.58" y="7"/>
            <rect fill="#F1F1F1" height="10" style="stroke:#181818;stroke-width:0.5;" width="15" x="935.3622" y="12"/>
            <rect fill="#F1F1F1" height="2" style="stroke:#181818;stroke-width:0.5;" width="4" x="933.3622" y="14"/>
            <rect fill="#F1F1F1" height="2" style="stroke:#181818;stroke-width:0.5;" width="4" x="933.3622" y="18"/>
            <text fill="#000000" font-family="sans-serif" font-size="14" lengthAdjust="spacing" textLength="79.7822"
                  x="850.58" y="39.9951">distribution
            </text>
        </g><!--entity server-->
        <g id="elem_server">
            <rect fill="#F1F1F1" height="46.2969" rx="2.5" ry="2.5" style="stroke:#181818;stroke-width:0.5;"
                  width="84.3174" x="853.32" y="134.84"/>
            <rect fill="#F1F1F1" height="10" style="stroke:#181818;stroke-width:0.5;" width="15" x="917.6374"
                  y="139.84"/>
            <rect fill="#F1F1F1" height="2" style="stroke:#181818;stroke-width:0.5;" width="4" x="915.6374" y="141.84"/>
            <rect fill="#F1F1F1" height="2" style="stroke:#181818;stroke-width:0.5;" width="4" x="915.6374" y="145.84"/>
            <text fill="#000000" font-family="sans-serif" font-size="14" lengthAdjust="spacing" textLength="44.3174"
                  x="868.32" y="167.8351">server
            </text>
        </g><!--entity bloom-filter-core-->
        <g id="elem_bloom-filter-core">
            <rect fill="#F1F1F1" height="46.2969" rx="2.5" ry="2.5" style="stroke:#181818;stroke-width:0.5;"
                  width="156.8467" x="1154.05" y="415.29"/>
            <rect fill="#F1F1F1" height="10" style="stroke:#181818;stroke-width:0.5;" width="15" x="1290.8967"
                  y="420.29"/>
            <rect fill="#F1F1F1" height="2" style="stroke:#181818;stroke-width:0.5;" width="4" x="1288.8967"
                  y="422.29"/>
            <rect fill="#F1F1F1" height="2" style="stroke:#181818;stroke-width:0.5;" width="4" x="1288.8967"
                  y="426.29"/>
            <text fill="#000000" font-family="sans-serif" font-size="14" lengthAdjust="spacing" textLength="116.8467"
                  x="1169.05" y="448.2851">bloom-filter-core
            </text>
        </g><!--entity core-->
        <g id="elem_core">
            <rect fill="#F1F1F1" height="46.2969" rx="2.5" ry="2.5" style="stroke:#181818;stroke-width:0.5;"
                  width="70.6318" x="854.16" y="538.58"/>
            <rect fill="#F1F1F1" height="10" style="stroke:#181818;stroke-width:0.5;" width="15" x="904.7918"
                  y="543.58"/>
            <rect fill="#F1F1F1" height="2" style="stroke:#181818;stroke-width:0.5;" width="4" x="902.7918" y="545.58"/>
            <rect fill="#F1F1F1" height="2" style="stroke:#181818;stroke-width:0.5;" width="4" x="902.7918" y="549.58"/>
            <text fill="#000000" font-family="sans-serif" font-size="14" lengthAdjust="spacing" textLength="30.6318"
                  x="869.16" y="571.5751">core
            </text>
        </g><!--entity bloom-filter-local-->
        <g id="elem_bloom-filter-local">
            <rect fill="#F1F1F1" height="46.2969" rx="2.5" ry="2.5" style="stroke:#181818;stroke-width:0.5;"
                  width="158.8359" x="1126.06" y="262.69"/>
            <rect fill="#F1F1F1" height="10" style="stroke:#181818;stroke-width:0.5;" width="15" x="1264.8959"
                  y="267.69"/>
            <rect fill="#F1F1F1" height="2" style="stroke:#181818;stroke-width:0.5;" width="4" x="1262.8959"
                  y="269.69"/>
            <rect fill="#F1F1F1" height="2" style="stroke:#181818;stroke-width:0.5;" width="4" x="1262.8959"
                  y="273.69"/>
            <text fill="#000000" font-family="sans-serif" font-size="14" lengthAdjust="spacing" textLength="118.8359"
                  x="1141.06" y="295.6851">bloom-filter-local
            </text>
        </g><!--entity cache-core-->
        <g id="elem_cache-core">
            <rect fill="#F1F1F1" height="46.2969" rx="2.5" ry="2.5" style="stroke:#181818;stroke-width:0.5;"
                  width="117.1436" x="384.9" y="415.29"/>
            <rect fill="#F1F1F1" height="10" style="stroke:#181818;stroke-width:0.5;" width="15" x="482.0436"
                  y="420.29"/>
            <rect fill="#F1F1F1" height="2" style="stroke:#181818;stroke-width:0.5;" width="4" x="480.0436" y="422.29"/>
            <rect fill="#F1F1F1" height="2" style="stroke:#181818;stroke-width:0.5;" width="4" x="480.0436" y="426.29"/>
            <text fill="#000000" font-family="sans-serif" font-size="14" lengthAdjust="spacing" textLength="77.1436"
                  x="399.9" y="448.2851">cache-core
            </text>
        </g><!--entity cache-caffeine-->
        <g id="elem_cache-caffeine">
            <rect fill="#F1F1F1" height="46.2969" rx="2.5" ry="2.5" style="stroke:#181818;stroke-width:0.5;"
                  width="142.6348" x="379.16" y="262.69"/>
            <rect fill="#F1F1F1" height="10" style="stroke:#181818;stroke-width:0.5;" width="15" x="501.7948"
                  y="267.69"/>
            <rect fill="#F1F1F1" height="2" style="stroke:#181818;stroke-width:0.5;" width="4" x="499.7948" y="269.69"/>
            <rect fill="#F1F1F1" height="2" style="stroke:#181818;stroke-width:0.5;" width="4" x="499.7948" y="273.69"/>
            <text fill="#000000" font-family="sans-serif" font-size="14" lengthAdjust="spacing" textLength="102.6348"
                  x="394.16" y="295.6851">cache-caffeine
            </text>
        </g><!--entity cache-redis-->
        <g id="elem_cache-redis">
            <rect fill="#F1F1F1" height="46.2969" rx="2.5" ry="2.5" style="stroke:#181818;stroke-width:0.5;"
                  width="120.9512" x="7" y="262.69"/>
            <rect fill="#F1F1F1" height="10" style="stroke:#181818;stroke-width:0.5;" width="15" x="107.9512"
                  y="267.69"/>
            <rect fill="#F1F1F1" height="2" style="stroke:#181818;stroke-width:0.5;" width="4" x="105.9512" y="269.69"/>
            <rect fill="#F1F1F1" height="2" style="stroke:#181818;stroke-width:0.5;" width="4" x="105.9512" y="273.69"/>
            <text fill="#000000" font-family="sans-serif" font-size="14" lengthAdjust="spacing" textLength="80.9512"
                  x="22" y="295.6851">cache-redis
            </text>
        </g><!--entity schedule-->
        <g id="elem_schedule">
            <rect fill="#F1F1F1" height="46.2969" rx="2.5" ry="2.5" style="stroke:#181818;stroke-width:0.5;"
                  width="102.7402" x="576.11" y="262.69"/>
            <rect fill="#F1F1F1" height="10" style="stroke:#181818;stroke-width:0.5;" width="15" x="658.8502"
                  y="267.69"/>
            <rect fill="#F1F1F1" height="2" style="stroke:#181818;stroke-width:0.5;" width="4" x="656.8502" y="269.69"/>
            <rect fill="#F1F1F1" height="2" style="stroke:#181818;stroke-width:0.5;" width="4" x="656.8502" y="273.69"/>
            <text fill="#000000" font-family="sans-serif" font-size="14" lengthAdjust="spacing" textLength="62.7402"
                  x="591.11" y="295.6851">schedule
            </text>
        </g><!--entity mybatis-plus-->
        <g id="elem_mybatis-plus">
            <rect fill="#F1F1F1" height="46.2969" rx="2.5" ry="2.5" style="stroke:#181818;stroke-width:0.5;"
                  width="130.0566" x="700.45" y="338.99"/>
            <rect fill="#F1F1F1" height="10" style="stroke:#181818;stroke-width:0.5;" width="15" x="810.5066"
                  y="343.99"/>
            <rect fill="#F1F1F1" height="2" style="stroke:#181818;stroke-width:0.5;" width="4" x="808.5066" y="345.99"/>
            <rect fill="#F1F1F1" height="2" style="stroke:#181818;stroke-width:0.5;" width="4" x="808.5066" y="349.99"/>
            <text fill="#000000" font-family="sans-serif" font-size="14" lengthAdjust="spacing" textLength="90.0566"
                  x="715.45" y="371.9851">mybatis-plus
            </text>
        </g><!--entity spring-doc-->
        <g id="elem_spring-doc">
            <rect fill="#F1F1F1" height="46.2969" rx="2.5" ry="2.5" style="stroke:#181818;stroke-width:0.5;"
                  width="113.7871" x="837.58" y="338.99"/>
            <rect fill="#F1F1F1" height="10" style="stroke:#181818;stroke-width:0.5;" width="15" x="931.3671"
                  y="343.99"/>
            <rect fill="#F1F1F1" height="2" style="stroke:#181818;stroke-width:0.5;" width="4" x="929.3671" y="345.99"/>
            <rect fill="#F1F1F1" height="2" style="stroke:#181818;stroke-width:0.5;" width="4" x="929.3671" y="349.99"/>
            <text fill="#000000" font-family="sans-serif" font-size="14" lengthAdjust="spacing" textLength="73.7871"
                  x="852.58" y="371.9851">spring-doc
            </text>
        </g><!--entity web-->
        <g id="elem_web">
            <rect fill="#F1F1F1" height="46.2969" rx="2.5" ry="2.5" style="stroke:#181818;stroke-width:0.5;"
                  width="68.9502" x="1005" y="338.99"/>
            <rect fill="#F1F1F1" height="10" style="stroke:#181818;stroke-width:0.5;" width="15" x="1053.9502"
                  y="343.99"/>
            <rect fill="#F1F1F1" height="2" style="stroke:#181818;stroke-width:0.5;" width="4" x="1051.9502"
                  y="345.99"/>
            <rect fill="#F1F1F1" height="2" style="stroke:#181818;stroke-width:0.5;" width="4" x="1051.9502"
                  y="349.99"/>
            <text fill="#000000" font-family="sans-serif" font-size="14" lengthAdjust="spacing" textLength="28.9502"
                  x="1020" y="371.9851">web
            </text>
        </g><!--entity storage-engine-local-->
        <g id="elem_storage-engine-local">
            <rect fill="#F1F1F1" height="46.2969" rx="2.5" ry="2.5" style="stroke:#181818;stroke-width:0.5;"
                  width="183.6572" x="268.65" y="134.84"/>
            <rect fill="#F1F1F1" height="10" style="stroke:#181818;stroke-width:0.5;" width="15" x="432.3072"
                  y="139.84"/>
            <rect fill="#F1F1F1" height="2" style="stroke:#181818;stroke-width:0.5;" width="4" x="430.3072" y="141.84"/>
            <rect fill="#F1F1F1" height="2" style="stroke:#181818;stroke-width:0.5;" width="4" x="430.3072" y="145.84"/>
            <text fill="#000000" font-family="sans-serif" font-size="14" lengthAdjust="spacing" textLength="143.6572"
                  x="283.65" y="167.8351">storage-engine-local
            </text>
        </g><!--entity storage-engine-core-->
        <g id="elem_storage-engine-core">
            <rect fill="#F1F1F1" height="46.2969" rx="2.5" ry="2.5" style="stroke:#181818;stroke-width:0.5;"
                  width="181.668" x="162.64" y="262.69"/>
            <rect fill="#F1F1F1" height="10" style="stroke:#181818;stroke-width:0.5;" width="15" x="324.308"
                  y="267.69"/>
            <rect fill="#F1F1F1" height="2" style="stroke:#181818;stroke-width:0.5;" width="4" x="322.308" y="269.69"/>
            <rect fill="#F1F1F1" height="2" style="stroke:#181818;stroke-width:0.5;" width="4" x="322.308" y="273.69"/>
            <text fill="#000000" font-family="sans-serif" font-size="14" lengthAdjust="spacing" textLength="141.668"
                  x="177.64" y="295.6851">storage-engine-core
            </text>
        </g><!--entity storage-engine-oss-->
        <g id="elem_storage-engine-oss">
            <rect fill="#F1F1F1" height="46.2969" rx="2.5" ry="2.5" style="stroke:#181818;stroke-width:0.5;"
                  width="174.1895" x="59.38" y="134.84"/>
            <rect fill="#F1F1F1" height="10" style="stroke:#181818;stroke-width:0.5;" width="15" x="213.5695"
                  y="139.84"/>
            <rect fill="#F1F1F1" height="2" style="stroke:#181818;stroke-width:0.5;" width="4" x="211.5695" y="141.84"/>
            <rect fill="#F1F1F1" height="2" style="stroke:#181818;stroke-width:0.5;" width="4" x="211.5695" y="145.84"/>
            <text fill="#000000" font-family="sans-serif" font-size="14" lengthAdjust="spacing" textLength="134.1895"
                  x="74.38" y="167.8351">storage-engine-oss
            </text>
        </g>
        <g id="elem_GMN35">
            <path d="M972.87,130.29 L972.87,153.99 L938.02,157.99 L972.87,161.99 L972.87,185.6884 A0,0 0 0 0 972.87,185.6884 L1136.0892,185.6884 A0,0 0 0 0 1136.0892,185.6884 L1136.0892,140.29 L1126.0892,130.29 L972.87,130.29 A0,0 0 0 0 972.87,130.29 "
                  fill="#FEFFDD" style="stroke:#181818;stroke-width:0.5;"/>
            <path d="M1126.0892,130.29 L1126.0892,140.29 L1136.0892,140.29 L1126.0892,130.29 " fill="#FEFFDD"
                  style="stroke:#181818;stroke-width:0.5;"/>
            <text fill="#000000" font-family="sans-serif" font-size="13" lengthAdjust="spacing" textLength="125.5123"
                  x="978.87" y="147.3569">&#36873;&#25321;&#24615;&#24341;&#29992; &#23384;&#20648;&#24341;&#25806;:
            </text>
            <text fill="#000000" font-family="sans-serif" font-size="13" lengthAdjust="spacing" textLength="142.2192"
                  x="978.87" y="162.4897">- storage-engine-local
            </text>
            <text fill="#000000" font-family="sans-serif" font-size="13" lengthAdjust="spacing" textLength="133.4277"
                  x="978.87" y="177.6225">- storage-engine-oss
            </text>
        </g>
        <g id="elem_GMN38">
            <path d="M672.22,130.29 L672.22,185.6884 A0,0 0 0 0 672.22,185.6884 L818.7323,185.6884 A0,0 0 0 0 818.7323,185.6884 L818.7323,161.99 L853.06,157.99 L818.7323,153.99 L818.7323,140.29 L808.7323,130.29 L672.22,130.29 A0,0 0 0 0 672.22,130.29 "
                  fill="#FEFFDD" style="stroke:#181818;stroke-width:0.5;"/>
            <path d="M808.7323,130.29 L808.7323,140.29 L818.7323,140.29 L808.7323,130.29 " fill="#FEFFDD"
                  style="stroke:#181818;stroke-width:0.5;"/>
            <text fill="#000000" font-family="sans-serif" font-size="13" lengthAdjust="spacing" textLength="125.5123"
                  x="678.22" y="147.3569">&#36873;&#25321;&#24615;&#24341;&#29992; &#32531;&#23384;&#26041;&#26696;:
            </text>
            <text fill="#000000" font-family="sans-serif" font-size="13" lengthAdjust="spacing" textLength="104.127"
                  x="678.22" y="162.4897">- cache-caffeine
            </text>
            <text fill="#000000" font-family="sans-serif" font-size="13" lengthAdjust="spacing" textLength="83.9922"
                  x="678.22" y="177.6225">- cache-redis
            </text>
        </g><!--link distribution to server-->
        <g id="link_distribution_server">
            <path d="M895.48,53.64 C895.48,76.55 895.48,105.85 895.48,128.69 " fill="none" id="distribution-to-server"
                  style="stroke:#181818;stroke-width:1.0;"/>
            <polygon fill="#181818" points="895.48,134.69,899.48,125.69,895.48,129.69,891.48,125.69,895.48,134.69"
                     style="stroke:#181818;stroke-width:1.0;"/>
            <text fill="#000000" font-family="sans-serif" font-size="13" lengthAdjust="spacing" textLength="78.0001"
                  x="896.48" y="96.3569">&#25171;&#21253;&#21518;&#31471;&#26381;&#21153;
            </text>
        </g><!--link bloom-filter-core to core-->
        <g id="link_bloom-filter-core_core">
            <path d="M1181.85,462.02 C1149.01,476.26 1105.11,494.55 1065.48,508.58 C1017.56,525.55 966.8213,540.0513 931.0113,549.7513 "
                  fill="none" id="bloom-filter-core-to-core" style="stroke:#181818;stroke-width:1.0;"/>
            <polygon fill="#181818"
                     points="925.22,551.32,934.9528,552.8278,930.0461,550.0127,932.8611,545.1061,925.22,551.32"
                     style="stroke:#181818;stroke-width:1.0;"/>
            <text fill="#000000" font-family="sans-serif" font-size="13" lengthAdjust="spacing" textLength="78.0001"
                  x="1107.48" y="504.6469">&#20381;&#36182;&#26680;&#24515;&#27169;&#22359;
            </text>
        </g><!--link bloom-filter-local to bloom-filter-core-->
        <g id="link_bloom-filter-local_bloom-filter-core">
            <path d="M1209.52,309.39 C1214.64,337.94 1222.3415,380.9241 1227.4315,409.3241 " fill="none"
                  id="bloom-filter-local-to-bloom-filter-core" style="stroke:#181818;stroke-width:1.0;"/>
            <polygon fill="#181818"
                     points="1228.49,415.23,1230.8395,405.6655,1227.6079,410.3084,1222.965,407.0768,1228.49,415.23"
                     style="stroke:#181818;stroke-width:1.0;"/>
            <text fill="#000000" font-family="sans-serif" font-size="13" lengthAdjust="spacing" textLength="143.0002"
                  x="1223.48" y="366.7069">&#20381;&#36182;&#36890;&#29992;&#24067;&#38534;&#36807;&#28388;&#22120;&#27169;&#22359;
            </text>
        </g><!--link cache-core to core-->
        <g id="link_cache-core_core">
            <path d="M498.88,462.06 C536.4,476.78 587.36,495.57 633.48,508.58 C710.96,530.44 798.1485,546.0923 847.9585,554.2323 "
                  fill="none" id="cache-core-to-core" style="stroke:#181818;stroke-width:1.0;"/>
            <polygon fill="#181818"
                     points="853.88,555.2,845.643,549.8008,848.9455,554.3936,844.3527,557.6961,853.88,555.2"
                     style="stroke:#181818;stroke-width:1.0;"/>
            <text fill="#000000" font-family="sans-serif" font-size="13" lengthAdjust="spacing" textLength="78.0001"
                  x="634.48" y="504.6469">&#20381;&#36182;&#26680;&#24515;&#27169;&#22359;
            </text>
        </g><!--link cache-caffeine to cache-core-->
        <g id="link_cache-caffeine_cache-core">
            <path d="M445.2,309.29 C443.31,318.45 441.41,329.17 440.48,338.99 C438,365.03 439.0664,389.1303 440.7164,409.1203 "
                  fill="none" id="cache-caffeine-to-cache-core" style="stroke:#181818;stroke-width:1.0;"/>
            <polygon fill="#181818"
                     points="441.21,415.1,444.4561,405.8015,440.7987,410.1169,436.4832,406.4595,441.21,415.1"
                     style="stroke:#181818;stroke-width:1.0;"/>
            <text fill="#000000" font-family="sans-serif" font-size="13" lengthAdjust="spacing" textLength="104.0001"
                  x="441.48" y="366.7069">&#20381;&#36182;&#20844;&#29992;&#32531;&#23384;&#27169;&#22359;
            </text>
        </g><!--link cache-redis to cache-core-->
        <g id="link_cache-redis_cache-core">
            <path d="M84.96,309.47 C103.95,332.36 136.41,366.89 172.48,385.29 C240.02,419.74 321.6245,431.1024 378.6745,435.0824 "
                  fill="none" id="cache-redis-to-cache-core" style="stroke:#181818;stroke-width:1.0;"/>
            <polygon fill="#181818"
                     points="384.66,435.5,375.9602,430.8834,379.6721,435.152,375.4034,438.864,384.66,435.5"
                     style="stroke:#181818;stroke-width:1.0;"/>
            <text fill="#000000" font-family="sans-serif" font-size="13" lengthAdjust="spacing" textLength="104.0001"
                  x="173.48" y="366.7069">&#20381;&#36182;&#20844;&#29992;&#32531;&#23384;&#27169;&#22359;
            </text>
        </g><!--link schedule to cache-core-->
        <g id="link_schedule_cache-core">
            <path d="M602.98,309.27 C594.08,318.07 584.3,328.55 576.48,338.99 C562.33,357.88 567.64,369.09 550.48,385.29 C536.8,398.19 524.747,405.9512 507.907,413.8912 "
                  fill="none" id="schedule-to-cache-core" style="stroke:#181818;stroke-width:1.0;"/>
            <polygon fill="#181818"
                     points="502.48,416.45,512.3264,416.2298,507.0025,414.3177,508.9146,408.9938,502.48,416.45"
                     style="stroke:#181818;stroke-width:1.0;"/>
            <text fill="#000000" font-family="sans-serif" font-size="13" lengthAdjust="spacing" textLength="104.0001"
                  x="577.48" y="366.7069">&#20381;&#36182;&#20844;&#29992;&#32531;&#23384;&#27169;&#22359;
            </text>
        </g><!--link mybatis-plus to core-->
        <g id="link_mybatis-plus_core">
            <path d="M772.02,385.62 C778.56,406.24 789.75,437.19 804.48,461.58 C821.93,490.51 843.666,515.0592 862.296,534.1192 "
                  fill="none" id="mybatis-plus-to-core" style="stroke:#181818;stroke-width:1.0;"/>
            <polygon fill="#181818"
                     points="866.49,538.41,863.0596,529.1779,862.995,534.8344,857.3385,534.7698,866.49,538.41"
                     style="stroke:#181818;stroke-width:1.0;"/>
            <text fill="#000000" font-family="sans-serif" font-size="13" lengthAdjust="spacing" textLength="78.0001"
                  x="805.48" y="442.9969">&#20381;&#36182;&#26680;&#24515;&#27169;&#22359;
            </text>
        </g><!--link spring-doc to core-->
        <g id="link_spring-doc_core">
            <path d="M893.91,385.42 C892.95,423.37 891.1611,494.1319 890.2011,532.2319 " fill="none"
                  id="spring-doc-to-core" style="stroke:#181818;stroke-width:1.0;"/>
            <polygon fill="#181818"
                     points="890.05,538.23,894.2754,529.3336,890.1759,533.2316,886.278,529.1321,890.05,538.23"
                     style="stroke:#181818;stroke-width:1.0;"/>
            <text fill="#000000" font-family="sans-serif" font-size="13" lengthAdjust="spacing" textLength="78.0001"
                  x="894.48" y="442.9969">&#20381;&#36182;&#26680;&#24515;&#27169;&#22359;
            </text>
        </g><!--link web to core-->
        <g id="link_web_core">
            <path d="M1028.09,385.5 C1017.23,406.04 999.84,436.92 981.48,461.58 C960.43,489.83 936.7387,514.8036 917.1787,534.1236 "
                  fill="none" id="web-to-core" style="stroke:#181818;stroke-width:1.0;"/>
            <polygon fill="#181818"
                     points="912.91,538.34,922.124,534.8613,916.4673,534.8264,916.5022,529.1696,912.91,538.34"
                     style="stroke:#181818;stroke-width:1.0;"/>
            <text fill="#000000" font-family="sans-serif" font-size="13" lengthAdjust="spacing" textLength="78.0001"
                  x="1012.48" y="442.9969">&#20381;&#36182;&#26680;&#24515;&#27169;&#22359;
            </text>
        </g><!--link storage-engine-local to storage-engine-core-->
        <g id="link_storage-engine-local_storage-engine-core">
            <path d="M341.35,181.49 C321.87,204.4 295.7466,235.129 276.3266,257.969 " fill="none"
                  id="storage-engine-local-to-storage-engine-core" style="stroke:#181818;stroke-width:1.0;"/>
            <polygon fill="#181818"
                     points="272.44,262.54,281.3172,258.2745,275.6788,258.7308,275.2225,253.0924,272.44,262.54"
                     style="stroke:#181818;stroke-width:1.0;"/>
            <text fill="#000000" font-family="sans-serif" font-size="13" lengthAdjust="spacing" textLength="104.0001"
                  x="311.48" y="228.7569">&#23454;&#29616;&#23384;&#20648;&#24341;&#25806;&#25509;&#21475;
            </text>
        </g><!--link storage-engine-oss to storage-engine-core-->
        <g id="link_storage-engine-oss_storage-engine-core">
            <path d="M156.08,181.39 C163.33,196.8 174.29,217.19 187.48,232.69 C196.75,243.59 203.8134,250.1591 214.9034,258.5891 "
                  fill="none" id="storage-engine-oss-to-storage-engine-core" style="stroke:#181818;stroke-width:1.0;"/>
            <polygon fill="#181818"
                     points="219.68,262.22,214.9357,253.5892,215.6995,259.1942,210.0944,259.958,219.68,262.22"
                     style="stroke:#181818;stroke-width:1.0;"/>
            <text fill="#000000" font-family="sans-serif" font-size="13" lengthAdjust="spacing" textLength="104.0001"
                  x="188.48" y="228.7569">&#23454;&#29616;&#23384;&#20648;&#24341;&#25806;&#25509;&#21475;
            </text>
        </g><!--link storage-engine-core to cache-core-->
        <g id="link_storage-engine-core_cache-core">
            <path d="M265.36,309.44 C277.83,331.31 299.25,364.18 325.48,385.29 C342.84,399.26 358.9783,407.9744 379.0083,416.1844 "
                  fill="none" id="storage-engine-core-to-cache-core" style="stroke:#181818;stroke-width:1.0;"/>
            <polygon fill="#181818"
                     points="384.56,418.46,377.7494,411.3455,379.9336,416.5637,374.7153,418.7478,384.56,418.46"
                     style="stroke:#181818;stroke-width:1.0;"/>
            <text fill="#000000" font-family="sans-serif" font-size="13" lengthAdjust="spacing" textLength="104.0001"
                  x="326.48" y="366.7069">&#20381;&#36182;&#20844;&#29992;&#32531;&#23384;&#27169;&#22359;
            </text>
        </g><!--link server to web-->
        <g id="link_server_web">
            <path d="M937.86,177.67 C963.08,189.55 991.8,204.72 1000.48,215.69 C1029.17,252 1036.4441,301.6424 1038.4341,332.5224 "
                  fill="none" id="server-to-web" style="stroke:#181818;stroke-width:1.0;"/>
            <polygon fill="#181818"
                     points="1038.82,338.51,1042.2329,329.2714,1038.4985,333.5204,1034.2495,329.7859,1038.82,338.51"
                     style="stroke:#181818;stroke-width:1.0;"/>
            <text fill="#000000" font-family="sans-serif" font-size="13" lengthAdjust="spacing" textLength="78.8824"
                  x="1013.48" y="228.7569">&#36890;&#29992;web&#22788;&#29702;
            </text>
        </g><!--link server to mybatis-plus-->
        <g id="link_server_mybatis-plus">
            <path d="M853.05,177.8 C828.33,189.59 800.48,204.61 792.48,215.69 C765.86,252.54 762.972,301.9624 763.832,332.6624 "
                  fill="none" id="server-to-mybatis-plus" style="stroke:#181818;stroke-width:1.0;"/>
            <polygon fill="#181818" points="764,338.66,767.7464,329.5515,763.86,333.662,759.7496,329.7755,764,338.66"
                     style="stroke:#181818;stroke-width:1.0;"/>
            <text fill="#000000" font-family="sans-serif" font-size="13" lengthAdjust="spacing" textLength="90.7462"
                  x="793.48" y="228.7569">&#36873;&#25321; ORM &#26694;&#26550;
            </text>
        </g><!--link server to spring-doc-->
        <g id="link_server_spring-doc">
            <path d="M894,181.61 C893.4,191.99 892.77,204.46 892.48,215.69 C891.32,259.37 892.434,304.4335 893.414,332.9635 "
                  fill="none" id="server-to-spring-doc" style="stroke:#181818;stroke-width:1.0;"/>
            <polygon fill="#181818"
                     points="893.62,338.96,897.3087,329.828,893.4484,333.9629,889.3134,330.1026,893.62,338.96"
                     style="stroke:#181818;stroke-width:1.0;"/>
            <text fill="#000000" font-family="sans-serif" font-size="13" lengthAdjust="spacing" textLength="102.6988"
                  x="893.48" y="228.7569">API &#25991;&#26723;&#29983;&#25104;&#24037;&#20855;
            </text>
        </g><!--link server to bloom-filter-local-->
        <g id="link_server_bloom-filter-local">
            <path d="M937.92,179.41 C943.74,181.76 949.7,183.93 955.48,185.69 C1029.71,208.3 1057.57,182.01 1127.48,215.69 C1150.46,226.77 1167.7021,242.2281 1182.2221,257.8281 "
                  fill="none" id="server-to-bloom-filter-local" style="stroke:#181818;stroke-width:1.0;"/>
            <polygon fill="#181818"
                     points="1186.31,262.22,1183.1061,252.9068,1182.9034,258.56,1177.2502,258.3573,1186.31,262.22"
                     style="stroke:#181818;stroke-width:1.0;"/>
            <text fill="#000000" font-family="sans-serif" font-size="13" lengthAdjust="spacing" textLength="65.0001"
                  x="1154.48" y="228.7569">&#24067;&#38534;&#36807;&#28388;&#22120;
            </text>
        </g><!--link server to schedule-->
        <g id="link_server_schedule">
            <path d="M852.82,179.93 C847.4,182.1 841.86,184.09 836.48,185.69 C751.99,210.76 703.84,154.45 640.48,215.69 C628.18,227.58 625.4204,241.14 625.4704,256.44 "
                  fill="none" id="server-to-schedule" style="stroke:#181818;stroke-width:1.0;"/>
            <polygon fill="#181818"
                     points="625.49,262.44,629.4606,253.427,625.4737,257.44,621.4606,253.4531,625.49,262.44"
                     style="stroke:#181818;stroke-width:1.0;"/>
            <text fill="#000000" font-family="sans-serif" font-size="13" lengthAdjust="spacing" textLength="78.0001"
                  x="641.48" y="228.7569">&#23450;&#26102;&#20219;&#21153;&#25903;&#25345;
            </text>
        </g><!--SRC=[bLFBJi905DttAoRTzmTOcBXqOJHk6nQbJB59wP1fqRXJ4KH59051YQz6ZHWVkF4LZFuCSwj_uPIM1WeXi9kPdaVlkVVAITsogPx8sZenuqYIvf1iORg6QHp5a0XxLLRAiqhPVMZ3sI7RTqH1a1C68Mb9qmqRKqab50T4_yXftU_ptzSwN7smdnoq77RU42CiWwYA4T36o8KQVvjDjzPY7xc_Pk7tPnSwD-oqrPSKP5LHL_7qln305Kt3kXbI1ZH28ii_Sb_tgygUJY9qYdbcCtCj3ancZPbD1JczaL1itP8oHjQQgaehGtKp9IM9EXLy7IUcmN5Tcr0bXILifdXwGosCV0g5sFE5MtxXvR3j5liwXcePohViw5eSKIEMDK4hXYPf2UFzeq5x8fE2xizzZ-UbuX7y0UGtThFZLWfY13RK71-_1mVtQ6bb4O5JW8ktA6EWEnv-Vda1GNqNd6ktTWd52dk_PVdtA6dCxlGY6TwB4Ql-pFdnDQ7nrkrq-193hGsbBLwpIMoCg9vQjH7Ha4yM_19Wyuwdp6j7Wv7710cDcuFHPzvG0Pj9v5a4HWRM9la4_QX_WbFqV8QtDNpexLye_Gy0]-->
    </g>
</svg>