<svg xmlns="http://www.w3.org/2000/svg" contentStyleType="text/css"
     height="319px" preserveAspectRatio="none" style="width:1927px;height:319px;background:#FFFFFF;" version="1.1"
     viewBox="0 0 1927 319" width="1927px" zoomAndPan="magnify">
    <defs/>
    <g><!--cluster Framework-->
        <g id="cluster_Framework">
            <path d="M8.5,6 L98.2646,6 A3.75,3.75 0 0 1 100.7646,8.5 L107.7646,28.2969 L1659.5,28.2969 A2.5,2.5 0 0 1 1662,30.7969 L1662,310.09 A2.5,2.5 0 0 1 1659.5,312.59 L8.5,312.59 A2.5,2.5 0 0 1 6,310.09 L6,8.5 A2.5,2.5 0 0 1 8.5,6 "
                  fill="none" style="stroke:#000000;stroke-width:1.5;"/>
            <line style="stroke:#000000;stroke-width:1.5;" x1="6" x2="107.7646" y1="28.2969" y2="28.2969"/>
            <text fill="#000000" font-family="sans-serif" font-size="14" font-weight="bold" lengthAdjust="spacing"
                  textLength="88.7646" x="10" y="20.9951">Framework
            </text>
        </g><!--cluster Bloom Filter-->
        <g id="cluster_Bloom Filter">
            <path d="M32.5,49 L129.9209,49 A3.75,3.75 0 0 1 132.4209,51.5 L139.4209,71.2969 L394.5,71.2969 A2.5,2.5 0 0 1 397,73.7969 L397,161.79 A2.5,2.5 0 0 1 394.5,164.29 L32.5,164.29 A2.5,2.5 0 0 1 30,161.79 L30,51.5 A2.5,2.5 0 0 1 32.5,49 "
                  fill="none" style="stroke:#000000;stroke-width:1.5;"/>
            <line style="stroke:#000000;stroke-width:1.5;" x1="30" x2="139.4209" y1="71.2969" y2="71.2969"/>
            <text fill="#000000" font-family="sans-serif" font-size="14" font-weight="bold" lengthAdjust="spacing"
                  textLength="96.4209" x="34" y="63.9951">Bloom Filter
            </text>
        </g><!--cluster Cache-->
        <g id="cluster_Cache">
            <path d="M423.5,49 L471.9824,49 A3.75,3.75 0 0 1 474.4824,51.5 L481.4824,71.2969 L729.5,71.2969 A2.5,2.5 0 0 1 732,73.7969 L732,286.09 A2.5,2.5 0 0 1 729.5,288.59 L423.5,288.59 A2.5,2.5 0 0 1 421,286.09 L421,51.5 A2.5,2.5 0 0 1 423.5,49 "
                  fill="none" style="stroke:#000000;stroke-width:1.5;"/>
            <line style="stroke:#000000;stroke-width:1.5;" x1="421" x2="481.4824" y1="71.2969" y2="71.2969"/>
            <text fill="#000000" font-family="sans-serif" font-size="14" font-weight="bold" lengthAdjust="spacing"
                  textLength="47.4824" x="425" y="63.9951">Cache
            </text>
        </g><!--cluster ORM-->
        <g id="cluster_ORM">
            <path d="M758.5,49 L796.1133,49 A3.75,3.75 0 0 1 798.6133,51.5 L805.6133,71.2969 L917.5,71.2969 A2.5,2.5 0 0 1 920,73.7969 L920,161.79 A2.5,2.5 0 0 1 917.5,164.29 L758.5,164.29 A2.5,2.5 0 0 1 756,161.79 L756,51.5 A2.5,2.5 0 0 1 758.5,49 "
                  fill="none" style="stroke:#000000;stroke-width:1.5;"/>
            <line style="stroke:#000000;stroke-width:1.5;" x1="756" x2="805.6133" y1="71.2969" y2="71.2969"/>
            <text fill="#000000" font-family="sans-serif" font-size="14" font-weight="bold" lengthAdjust="spacing"
                  textLength="36.6133" x="760" y="63.9951">ORM
            </text>
        </g><!--cluster Storage Engine-->
        <g id="cluster_Storage Engine">
            <path d="M946.5,49 L1068.4482,49 A3.75,3.75 0 0 1 1070.9482,51.5 L1077.9482,71.2969 L1376.5,71.2969 A2.5,2.5 0 0 1 1379,73.7969 L1379,286.09 A2.5,2.5 0 0 1 1376.5,288.59 L946.5,288.59 A2.5,2.5 0 0 1 944,286.09 L944,51.5 A2.5,2.5 0 0 1 946.5,49 "
                  fill="none" style="stroke:#000000;stroke-width:1.5;"/>
            <line style="stroke:#000000;stroke-width:1.5;" x1="944" x2="1077.9482" y1="71.2969" y2="71.2969"/>
            <text fill="#000000" font-family="sans-serif" font-size="14" font-weight="bold" lengthAdjust="spacing"
                  textLength="120.9482" x="948" y="63.9951">Storage Engine
            </text>
        </g><!--class core-->
        <g id="elem_core">
            <rect codeLine="23" fill="#F1F1F1" height="64.2969" id="core" rx="2.5" ry="2.5"
                  style="stroke:#181818;stroke-width:0.5;" width="95.9996" x="1400" y="84"/>
            <ellipse cx="1430.0155" cy="100" fill="#ADD1B2" rx="11" ry="11" style="stroke:#181818;stroke-width:1.0;"/>
            <path d="M1432.9843,105.6406 Q1432.4061,105.9375 1431.7655,106.0781 Q1431.1249,106.2344 1430.4218,106.2344 Q1427.9218,106.2344 1426.5936,104.5937 Q1425.2811,102.9375 1425.2811,99.8125 Q1425.2811,96.6875 1426.5936,95.0312 Q1427.9218,93.375 1430.4218,93.375 Q1431.1249,93.375 1431.7655,93.5312 Q1432.4218,93.6875 1432.9843,93.9844 L1432.9843,96.7031 Q1432.3593,96.125 1431.7655,95.8594 Q1431.1718,95.5781 1430.5468,95.5781 Q1429.203,95.5781 1428.5155,96.6562 Q1427.828,97.7187 1427.828,99.8125 Q1427.828,101.9062 1428.5155,102.9844 Q1429.203,104.0469 1430.5468,104.0469 Q1431.1718,104.0469 1431.7655,103.7812 Q1432.3593,103.5 1432.9843,102.9219 L1432.9843,105.6406 Z "
                  fill="#000000"/>
            <text fill="#000000" font-family="sans-serif" font-size="14" lengthAdjust="spacing" textLength="30.6318"
                  x="1447.3523" y="104.8467">core
            </text>
            <line style="stroke:#181818;stroke-width:0.5;" x1="1401" x2="1494.9996" y1="116" y2="116"/>
            <text fill="#000000" font-family="sans-serif" font-size="14" lengthAdjust="spacing" textLength="83.9996"
                  x="1406" y="132.9951">&#26680;&#24515;&#20844;&#20849;&#27169;&#22359;
            </text>
            <line style="stroke:#181818;stroke-width:0.5;" x1="1401" x2="1494.9996" y1="140.2969" y2="140.2969"/>
        </g><!--class schedule-->
        <g id="elem_schedule">
            <rect codeLine="33" fill="#F1F1F1" height="64.2969" id="schedule" rx="2.5" ry="2.5"
                  style="stroke:#181818;stroke-width:0.5;" width="95.9996" x="1531" y="84"/>
            <ellipse cx="1546.5667" cy="100" fill="#ADD1B2" rx="11" ry="11" style="stroke:#181818;stroke-width:1.0;"/>
            <path d="M1549.5355,105.6406 Q1548.9574,105.9375 1548.3167,106.0781 Q1547.6761,106.2344 1546.973,106.2344 Q1544.473,106.2344 1543.1449,104.5937 Q1541.8324,102.9375 1541.8324,99.8125 Q1541.8324,96.6875 1543.1449,95.0312 Q1544.473,93.375 1546.973,93.375 Q1547.6761,93.375 1548.3167,93.5312 Q1548.973,93.6875 1549.5355,93.9844 L1549.5355,96.7031 Q1548.9105,96.125 1548.3167,95.8594 Q1547.723,95.5781 1547.098,95.5781 Q1545.7542,95.5781 1545.0667,96.6562 Q1544.3792,97.7187 1544.3792,99.8125 Q1544.3792,101.9062 1545.0667,102.9844 Q1545.7542,104.0469 1547.098,104.0469 Q1547.723,104.0469 1548.3167,103.7812 Q1548.9105,103.5 1549.5355,102.9219 L1549.5355,105.6406 Z "
                  fill="#000000"/>
            <text fill="#000000" font-family="sans-serif" font-size="14" lengthAdjust="spacing" textLength="62.7402"
                  x="1560.6927" y="104.8467">schedule
            </text>
            <line style="stroke:#181818;stroke-width:0.5;" x1="1532" x2="1625.9996" y1="116" y2="116"/>
            <text fill="#000000" font-family="sans-serif" font-size="14" lengthAdjust="spacing" textLength="83.9996"
                  x="1537" y="132.9951">&#23450;&#26102;&#20219;&#21153;&#27169;&#22359;
            </text>
            <line style="stroke:#181818;stroke-width:0.5;" x1="1532" x2="1625.9996" y1="140.2969" y2="140.2969"/>
        </g><!--class spring-doc-->
        <g id="elem_spring-doc">
            <rect codeLine="49" fill="#F1F1F1" height="64.2969" id="spring-doc" rx="2.5" ry="2.5"
                  style="stroke:#181818;stroke-width:0.5;" width="105.7871" x="1395.11" y="208.29"/>
            <ellipse cx="1410.11" cy="224.29" fill="#ADD1B2" rx="11" ry="11" style="stroke:#181818;stroke-width:1.0;"/>
            <path d="M1413.0788,229.9306 Q1412.5006,230.2275 1411.86,230.3681 Q1411.2194,230.5244 1410.5163,230.5244 Q1408.0163,230.5244 1406.6881,228.8837 Q1405.3756,227.2275 1405.3756,224.1025 Q1405.3756,220.9775 1406.6881,219.3212 Q1408.0163,217.665 1410.5163,217.665 Q1411.2194,217.665 1411.86,217.8212 Q1412.5163,217.9775 1413.0788,218.2744 L1413.0788,220.9931 Q1412.4538,220.415 1411.86,220.1494 Q1411.2663,219.8681 1410.6413,219.8681 Q1409.2975,219.8681 1408.61,220.9462 Q1407.9225,222.0087 1407.9225,224.1025 Q1407.9225,226.1962 1408.61,227.2744 Q1409.2975,228.3369 1410.6413,228.3369 Q1411.2663,228.3369 1411.86,228.0712 Q1412.4538,227.79 1413.0788,227.2119 L1413.0788,229.9306 Z "
                  fill="#000000"/>
            <text fill="#000000" font-family="sans-serif" font-size="14" lengthAdjust="spacing" textLength="73.7871"
                  x="1424.11" y="229.1367">spring-doc
            </text>
            <line style="stroke:#181818;stroke-width:0.5;" x1="1396.11" x2="1499.8971" y1="240.29" y2="240.29"/>
            <text fill="#000000" font-family="sans-serif" font-size="14" lengthAdjust="spacing" textLength="82.5984"
                  x="1401.11" y="257.2851">API &#25991;&#26723;&#27169;&#22359;
            </text>
            <line style="stroke:#181818;stroke-width:0.5;" x1="1396.11" x2="1499.8971" y1="264.5869" y2="264.5869"/>
        </g><!--class web-->
        <g id="elem_web">
            <rect codeLine="53" fill="#F1F1F1" height="64.2969" id="web" rx="2.5" ry="2.5"
                  style="stroke:#181818;stroke-width:0.5;" width="109.9996" x="1536" y="208.29"/>
            <ellipse cx="1573.0722" cy="224.29" fill="#ADD1B2" rx="11" ry="11"
                     style="stroke:#181818;stroke-width:1.0;"/>
            <path d="M1576.041,229.9306 Q1575.4628,230.2275 1574.8222,230.3681 Q1574.1816,230.5244 1573.4785,230.5244 Q1570.9785,230.5244 1569.6503,228.8837 Q1568.3378,227.2275 1568.3378,224.1025 Q1568.3378,220.9775 1569.6503,219.3212 Q1570.9785,217.665 1573.4785,217.665 Q1574.1816,217.665 1574.8222,217.8212 Q1575.4785,217.9775 1576.041,218.2744 L1576.041,220.9931 Q1575.416,220.415 1574.8222,220.1494 Q1574.2285,219.8681 1573.6035,219.8681 Q1572.2597,219.8681 1571.5722,220.9462 Q1570.8847,222.0087 1570.8847,224.1025 Q1570.8847,226.1962 1571.5722,227.2744 Q1572.2597,228.3369 1573.6035,228.3369 Q1574.2285,228.3369 1574.8222,228.0712 Q1575.416,227.79 1576.041,227.2119 L1576.041,229.9306 Z "
                  fill="#000000"/>
            <text fill="#000000" font-family="sans-serif" font-size="14" lengthAdjust="spacing" textLength="28.9502"
                  x="1591.9772" y="229.1367">web
            </text>
            <line style="stroke:#181818;stroke-width:0.5;" x1="1537" x2="1644.9996" y1="240.29" y2="240.29"/>
            <text fill="#000000" font-family="sans-serif" font-size="14" lengthAdjust="spacing" textLength="97.9996"
                  x="1542" y="257.2851">&#21518;&#31471;&#26381;&#21153;&#20027;&#26694;&#26550;
            </text>
            <line style="stroke:#181818;stroke-width:0.5;" x1="1537" x2="1644.9996" y1="264.5869" y2="264.5869"/>
        </g><!--class bloom-filter-core-->
        <g id="elem_bloom-filter-core">
            <rect codeLine="3" fill="#F1F1F1" height="64.2969" id="bloom-filter-core" rx="2.5" ry="2.5"
                  style="stroke:#181818;stroke-width:0.5;" width="148.8467" x="45.58" y="84"/>
            <ellipse cx="60.58" cy="100" fill="#ADD1B2" rx="11" ry="11" style="stroke:#181818;stroke-width:1.0;"/>
            <path d="M63.5488,105.6406 Q62.9706,105.9375 62.33,106.0781 Q61.6894,106.2344 60.9863,106.2344 Q58.4863,106.2344 57.1581,104.5937 Q55.8456,102.9375 55.8456,99.8125 Q55.8456,96.6875 57.1581,95.0312 Q58.4863,93.375 60.9863,93.375 Q61.6894,93.375 62.33,93.5312 Q62.9863,93.6875 63.5488,93.9844 L63.5488,96.7031 Q62.9238,96.125 62.33,95.8594 Q61.7363,95.5781 61.1113,95.5781 Q59.7675,95.5781 59.08,96.6562 Q58.3925,97.7187 58.3925,99.8125 Q58.3925,101.9062 59.08,102.9844 Q59.7675,104.0469 61.1113,104.0469 Q61.7363,104.0469 62.33,103.7812 Q62.9238,103.5 63.5488,102.9219 L63.5488,105.6406 Z "
                  fill="#000000"/>
            <text fill="#000000" font-family="sans-serif" font-size="14" lengthAdjust="spacing" textLength="116.8467"
                  x="74.58" y="104.8467">bloom-filter-core
            </text>
            <line style="stroke:#181818;stroke-width:0.5;" x1="46.58" x2="193.4267" y1="116" y2="116"/>
            <text fill="#000000" font-family="sans-serif" font-size="14" lengthAdjust="spacing" textLength="125.9995"
                  x="51.58" y="132.9951">&#24067;&#38534;&#36807;&#28388;&#22120;&#36890;&#29992;&#27169;&#22359;
            </text>
            <line style="stroke:#181818;stroke-width:0.5;" x1="46.58" x2="193.4267" y1="140.2969" y2="140.2969"/>
        </g><!--class bloom-filter-local-->
        <g id="elem_bloom-filter-local">
            <rect codeLine="6" fill="#F1F1F1" height="64.2969" id="bloom-filter-local" rx="2.5" ry="2.5"
                  style="stroke:#181818;stroke-width:0.5;" width="151.9994" x="229" y="84"/>
            <ellipse cx="244.5236" cy="100" fill="#ADD1B2" rx="11" ry="11" style="stroke:#181818;stroke-width:1.0;"/>
            <path d="M247.4923,105.6406 Q246.9142,105.9375 246.2736,106.0781 Q245.6329,106.2344 244.9298,106.2344 Q242.4298,106.2344 241.1017,104.5937 Q239.7892,102.9375 239.7892,99.8125 Q239.7892,96.6875 241.1017,95.0312 Q242.4298,93.375 244.9298,93.375 Q245.6329,93.375 246.2736,93.5312 Q246.9298,93.6875 247.4923,93.9844 L247.4923,96.7031 Q246.8673,96.125 246.2736,95.8594 Q245.6798,95.5781 245.0548,95.5781 Q243.7111,95.5781 243.0236,96.6562 Q242.3361,97.7187 242.3361,99.8125 Q242.3361,101.9062 243.0236,102.9844 Q243.7111,104.0469 245.0548,104.0469 Q245.6798,104.0469 246.2736,103.7812 Q246.8673,103.5 247.4923,102.9219 L247.4923,105.6406 Z "
                  fill="#000000"/>
            <text fill="#000000" font-family="sans-serif" font-size="14" lengthAdjust="spacing" textLength="118.8359"
                  x="258.6399" y="104.8467">bloom-filter-local
            </text>
            <line style="stroke:#181818;stroke-width:0.5;" x1="230" x2="379.9994" y1="116" y2="116"/>
            <text fill="#000000" font-family="sans-serif" font-size="14" lengthAdjust="spacing" textLength="139.9994"
                  x="235" y="132.9951">&#26412;&#22320;&#30340;&#24067;&#38534;&#36807;&#28388;&#22120;&#23454;&#29616;
            </text>
            <line style="stroke:#181818;stroke-width:0.5;" x1="230" x2="379.9994" y1="140.2969" y2="140.2969"/>
        </g><!--class cache-core-->
        <g id="elem_cache-core">
            <rect codeLine="12" fill="#F1F1F1" height="64.2969" id="cache-core" rx="2.5" ry="2.5"
                  style="stroke:#181818;stroke-width:0.5;" width="109.1436" x="437.43" y="84"/>
            <ellipse cx="452.43" cy="100" fill="#ADD1B2" rx="11" ry="11" style="stroke:#181818;stroke-width:1.0;"/>
            <path d="M455.3988,105.6406 Q454.8206,105.9375 454.18,106.0781 Q453.5394,106.2344 452.8363,106.2344 Q450.3363,106.2344 449.0081,104.5937 Q447.6956,102.9375 447.6956,99.8125 Q447.6956,96.6875 449.0081,95.0312 Q450.3363,93.375 452.8363,93.375 Q453.5394,93.375 454.18,93.5312 Q454.8363,93.6875 455.3988,93.9844 L455.3988,96.7031 Q454.7738,96.125 454.18,95.8594 Q453.5863,95.5781 452.9613,95.5781 Q451.6175,95.5781 450.93,96.6562 Q450.2425,97.7187 450.2425,99.8125 Q450.2425,101.9062 450.93,102.9844 Q451.6175,104.0469 452.9613,104.0469 Q453.5863,104.0469 454.18,103.7812 Q454.7738,103.5 455.3988,102.9219 L455.3988,105.6406 Z "
                  fill="#000000"/>
            <text fill="#000000" font-family="sans-serif" font-size="14" lengthAdjust="spacing" textLength="77.1436"
                  x="466.43" y="104.8467">cache-core
            </text>
            <line style="stroke:#181818;stroke-width:0.5;" x1="438.43" x2="545.5736" y1="116" y2="116"/>
            <text fill="#000000" font-family="sans-serif" font-size="14" lengthAdjust="spacing" textLength="83.9996"
                  x="443.43" y="132.9951">&#26680;&#24515;&#32531;&#23384;&#27169;&#22359;
            </text>
            <line style="stroke:#181818;stroke-width:0.5;" x1="438.43" x2="545.5736" y1="140.2969" y2="140.2969"/>
        </g><!--class cache-caffeine-->
        <g id="elem_cache-caffeine">
            <rect codeLine="15" fill="#F1F1F1" height="64.2969" id="cache-caffeine" rx="2.5" ry="2.5"
                  style="stroke:#181818;stroke-width:0.5;" width="134.6348" x="581.68" y="84"/>
            <ellipse cx="596.68" cy="100" fill="#ADD1B2" rx="11" ry="11" style="stroke:#181818;stroke-width:1.0;"/>
            <path d="M599.6488,105.6406 Q599.0706,105.9375 598.43,106.0781 Q597.7894,106.2344 597.0863,106.2344 Q594.5863,106.2344 593.2581,104.5937 Q591.9456,102.9375 591.9456,99.8125 Q591.9456,96.6875 593.2581,95.0312 Q594.5863,93.375 597.0863,93.375 Q597.7894,93.375 598.43,93.5312 Q599.0863,93.6875 599.6488,93.9844 L599.6488,96.7031 Q599.0238,96.125 598.43,95.8594 Q597.8363,95.5781 597.2113,95.5781 Q595.8675,95.5781 595.18,96.6562 Q594.4925,97.7187 594.4925,99.8125 Q594.4925,101.9062 595.18,102.9844 Q595.8675,104.0469 597.2113,104.0469 Q597.8363,104.0469 598.43,103.7812 Q599.0238,103.5 599.6488,102.9219 L599.6488,105.6406 Z "
                  fill="#000000"/>
            <text fill="#000000" font-family="sans-serif" font-size="14" lengthAdjust="spacing" textLength="102.6348"
                  x="610.68" y="104.8467">cache-caffeine
            </text>
            <line style="stroke:#181818;stroke-width:0.5;" x1="582.68" x2="715.3148" y1="116" y2="116"/>
            <text fill="#000000" font-family="sans-serif" font-size="14" lengthAdjust="spacing" textLength="118.6511"
                  x="587.68" y="132.9951">Caffeine &#26412;&#22320;&#32531;&#23384;
            </text>
            <line style="stroke:#181818;stroke-width:0.5;" x1="582.68" x2="715.3148" y1="140.2969" y2="140.2969"/>
        </g><!--class cache-redis-->
        <g id="elem_cache-redis">
            <rect codeLine="18" fill="#F1F1F1" height="64.2969" id="cache-redis" rx="2.5" ry="2.5"
                  style="stroke:#181818;stroke-width:0.5;" width="112.9512" x="436.52" y="208.29"/>
            <ellipse cx="451.52" cy="224.29" fill="#ADD1B2" rx="11" ry="11" style="stroke:#181818;stroke-width:1.0;"/>
            <path d="M454.4888,229.9306 Q453.9106,230.2275 453.27,230.3681 Q452.6294,230.5244 451.9263,230.5244 Q449.4263,230.5244 448.0981,228.8837 Q446.7856,227.2275 446.7856,224.1025 Q446.7856,220.9775 448.0981,219.3212 Q449.4263,217.665 451.9263,217.665 Q452.6294,217.665 453.27,217.8212 Q453.9263,217.9775 454.4888,218.2744 L454.4888,220.9931 Q453.8638,220.415 453.27,220.1494 Q452.6763,219.8681 452.0513,219.8681 Q450.7075,219.8681 450.02,220.9462 Q449.3325,222.0087 449.3325,224.1025 Q449.3325,226.1962 450.02,227.2744 Q450.7075,228.3369 452.0513,228.3369 Q452.6763,228.3369 453.27,228.0712 Q453.8638,227.79 454.4888,227.2119 L454.4888,229.9306 Z "
                  fill="#000000"/>
            <text fill="#000000" font-family="sans-serif" font-size="14" lengthAdjust="spacing" textLength="80.9512"
                  x="465.52" y="229.1367">cache-redis
            </text>
            <line style="stroke:#181818;stroke-width:0.5;" x1="437.52" x2="548.4712" y1="240.29" y2="240.29"/>
            <text fill="#000000" font-family="sans-serif" font-size="14" lengthAdjust="spacing" textLength="70.8612"
                  x="442.52" y="257.2851">Redis &#32531;&#23384;
            </text>
            <line style="stroke:#181818;stroke-width:0.5;" x1="437.52" x2="548.4712" y1="264.5869" y2="264.5869"/>
        </g><!--class mybatis-plus-->
        <g id="elem_mybatis-plus">
            <rect codeLine="28" fill="#F1F1F1" height="64.2969" id="mybatis-plus" rx="2.5" ry="2.5"
                  style="stroke:#181818;stroke-width:0.5;" width="132.62" x="771.69" y="84"/>
            <ellipse cx="791.4435" cy="100" fill="#ADD1B2" rx="11" ry="11" style="stroke:#181818;stroke-width:1.0;"/>
            <path d="M794.4123,105.6406 Q793.8341,105.9375 793.1935,106.0781 Q792.5529,106.2344 791.8498,106.2344 Q789.3498,106.2344 788.0216,104.5937 Q786.7091,102.9375 786.7091,99.8125 Q786.7091,96.6875 788.0216,95.0312 Q789.3498,93.375 791.8498,93.375 Q792.5529,93.375 793.1935,93.5312 Q793.8498,93.6875 794.4123,93.9844 L794.4123,96.7031 Q793.7873,96.125 793.1935,95.8594 Q792.5998,95.5781 791.9748,95.5781 Q790.631,95.5781 789.9435,96.6562 Q789.256,97.7187 789.256,99.8125 Q789.256,101.9062 789.9435,102.9844 Q790.631,104.0469 791.9748,104.0469 Q792.5998,104.0469 793.1935,103.7812 Q793.7873,103.5 794.4123,102.9219 L794.4123,105.6406 Z "
                  fill="#000000"/>
            <text fill="#000000" font-family="sans-serif" font-size="14" lengthAdjust="spacing" textLength="90.0566"
                  x="806.4998" y="104.8467">mybatis-plus
            </text>
            <line style="stroke:#181818;stroke-width:0.5;" x1="772.69" x2="903.31" y1="116" y2="116"/>
            <text fill="#000000" font-family="sans-serif" font-size="14" lengthAdjust="spacing" textLength="120.62"
                  x="777.69" y="132.9951">MyBatis Plus &#23454;&#29616;
            </text>
            <line style="stroke:#181818;stroke-width:0.5;" x1="772.69" x2="903.31" y1="140.2969" y2="140.2969"/>
        </g><!--class storage-engine-core-->
        <g id="elem_storage-engine-core">
            <rect codeLine="38" fill="#F1F1F1" height="64.2969" id="storage-engine-core" rx="2.5" ry="2.5"
                  style="stroke:#181818;stroke-width:0.5;" width="173.668" x="960.17" y="84"/>
            <ellipse cx="975.17" cy="100" fill="#ADD1B2" rx="11" ry="11" style="stroke:#181818;stroke-width:1.0;"/>
            <path d="M978.1388,105.6406 Q977.5606,105.9375 976.92,106.0781 Q976.2794,106.2344 975.5763,106.2344 Q973.0763,106.2344 971.7481,104.5937 Q970.4356,102.9375 970.4356,99.8125 Q970.4356,96.6875 971.7481,95.0312 Q973.0763,93.375 975.5763,93.375 Q976.2794,93.375 976.92,93.5312 Q977.5763,93.6875 978.1388,93.9844 L978.1388,96.7031 Q977.5138,96.125 976.92,95.8594 Q976.3263,95.5781 975.7013,95.5781 Q974.3575,95.5781 973.67,96.6562 Q972.9825,97.7187 972.9825,99.8125 Q972.9825,101.9062 973.67,102.9844 Q974.3575,104.0469 975.7013,104.0469 Q976.3263,104.0469 976.92,103.7812 Q977.5138,103.5 978.1388,102.9219 L978.1388,105.6406 Z "
                  fill="#000000"/>
            <text fill="#000000" font-family="sans-serif" font-size="14" lengthAdjust="spacing" textLength="141.668"
                  x="989.17" y="104.8467">storage-engine-core
            </text>
            <line style="stroke:#181818;stroke-width:0.5;" x1="961.17" x2="1132.838" y1="116" y2="116"/>
            <text fill="#000000" font-family="sans-serif" font-size="14" lengthAdjust="spacing" textLength="111.9995"
                  x="966.17" y="132.9951">&#26680;&#24515;&#23384;&#20648;&#24341;&#25806;&#27169;&#22359;
            </text>
            <line style="stroke:#181818;stroke-width:0.5;" x1="961.17" x2="1132.838" y1="140.2969" y2="140.2969"/>
        </g><!--class storage-engine-local-->
        <g id="elem_storage-engine-local">
            <rect codeLine="41" fill="#F1F1F1" height="64.2969" id="storage-engine-local" rx="2.5" ry="2.5"
                  style="stroke:#181818;stroke-width:0.5;" width="193.9992" x="1169" y="84"/>
            <ellipse cx="1192.2539" cy="100" fill="#ADD1B2" rx="11" ry="11" style="stroke:#181818;stroke-width:1.0;"/>
            <path d="M1195.2226,105.6406 Q1194.6445,105.9375 1194.0039,106.0781 Q1193.3633,106.2344 1192.6601,106.2344 Q1190.1601,106.2344 1188.832,104.5937 Q1187.5195,102.9375 1187.5195,99.8125 Q1187.5195,96.6875 1188.832,95.0312 Q1190.1601,93.375 1192.6601,93.375 Q1193.3633,93.375 1194.0039,93.5312 Q1194.6601,93.6875 1195.2226,93.9844 L1195.2226,96.7031 Q1194.5976,96.125 1194.0039,95.8594 Q1193.4101,95.5781 1192.7851,95.5781 Q1191.4414,95.5781 1190.7539,96.6562 Q1190.0664,97.7187 1190.0664,99.8125 Q1190.0664,101.9062 1190.7539,102.9844 Q1191.4414,104.0469 1192.7851,104.0469 Q1193.4101,104.0469 1194.0039,103.7812 Q1194.5976,103.5 1195.2226,102.9219 L1195.2226,105.6406 Z "
                  fill="#000000"/>
            <text fill="#000000" font-family="sans-serif" font-size="14" lengthAdjust="spacing" textLength="143.6572"
                  x="1208.0881" y="104.8467">storage-engine-local
            </text>
            <line style="stroke:#181818;stroke-width:0.5;" x1="1170" x2="1361.9992" y1="116" y2="116"/>
            <text fill="#000000" font-family="sans-serif" font-size="14" lengthAdjust="spacing" textLength="181.9992"
                  x="1175" y="132.9951">&#22522;&#20110;&#26412;&#22320;&#25991;&#20214;&#31995;&#32479;&#30340;&#23384;&#20648;&#24341;&#25806;
            </text>
            <line style="stroke:#181818;stroke-width:0.5;" x1="1170" x2="1361.9992" y1="140.2969" y2="140.2969"/>
        </g><!--class storage-engine-oss-->
        <g id="elem_storage-engine-oss">
            <rect codeLine="44" fill="#F1F1F1" height="64.2969" id="storage-engine-oss" rx="2.5" ry="2.5"
                  style="stroke:#181818;stroke-width:0.5;" width="189.6927" x="960.15" y="208.29"/>
            <ellipse cx="985.7265" cy="224.29" fill="#ADD1B2" rx="11" ry="11" style="stroke:#181818;stroke-width:1.0;"/>
            <path d="M988.6952,229.9306 Q988.1171,230.2275 987.4765,230.3681 Q986.8359,230.5244 986.1327,230.5244 Q983.6327,230.5244 982.3046,228.8837 Q980.9921,227.2275 980.9921,224.1025 Q980.9921,220.9775 982.3046,219.3212 Q983.6327,217.665 986.1327,217.665 Q986.8359,217.665 987.4765,217.8212 Q988.1327,217.9775 988.6952,218.2744 L988.6952,220.9931 Q988.0702,220.415 987.4765,220.1494 Q986.8827,219.8681 986.2577,219.8681 Q984.914,219.8681 984.2265,220.9462 Q983.539,222.0087 983.539,224.1025 Q983.539,226.1962 984.2265,227.2744 Q984.914,228.3369 986.2577,228.3369 Q986.8827,228.3369 987.4765,228.0712 Q988.0702,227.79 988.6952,227.2119 L988.6952,229.9306 Z "
                  fill="#000000"/>
            <text fill="#000000" font-family="sans-serif" font-size="14" lengthAdjust="spacing" textLength="134.1895"
                  x="1002.0768" y="229.1367">storage-engine-oss
            </text>
            <line style="stroke:#181818;stroke-width:0.5;" x1="961.15" x2="1148.8427" y1="240.29" y2="240.29"/>
            <text fill="#000000" font-family="sans-serif" font-size="14" lengthAdjust="spacing" textLength="177.6927"
                  x="966.15" y="257.2851">&#22522;&#20110;&#38463;&#37324;&#20113; OSS &#30340;&#23384;&#20648;&#24341;&#25806;
            </text>
            <line style="stroke:#181818;stroke-width:0.5;" x1="961.15" x2="1148.8427" y1="264.5869" y2="264.5869"/>
        </g><!--class distribution-->
        <g id="elem_distribution">
            <rect codeLine="58" fill="#F1F1F1" height="64.2969" id="distribution" rx="2.5" ry="2.5"
                  style="stroke:#181818;stroke-width:0.5;" width="111.7822" x="1678.11" y="84"/>
            <ellipse cx="1693.11" cy="100" fill="#ADD1B2" rx="11" ry="11" style="stroke:#181818;stroke-width:1.0;"/>
            <path d="M1696.0788,105.6406 Q1695.5006,105.9375 1694.86,106.0781 Q1694.2194,106.2344 1693.5163,106.2344 Q1691.0163,106.2344 1689.6881,104.5937 Q1688.3756,102.9375 1688.3756,99.8125 Q1688.3756,96.6875 1689.6881,95.0312 Q1691.0163,93.375 1693.5163,93.375 Q1694.2194,93.375 1694.86,93.5312 Q1695.5163,93.6875 1696.0788,93.9844 L1696.0788,96.7031 Q1695.4538,96.125 1694.86,95.8594 Q1694.2663,95.5781 1693.6413,95.5781 Q1692.2975,95.5781 1691.61,96.6562 Q1690.9225,97.7187 1690.9225,99.8125 Q1690.9225,101.9062 1691.61,102.9844 Q1692.2975,104.0469 1693.6413,104.0469 Q1694.2663,104.0469 1694.86,103.7812 Q1695.4538,103.5 1696.0788,102.9219 L1696.0788,105.6406 Z "
                  fill="#000000"/>
            <text fill="#000000" font-family="sans-serif" font-size="14" lengthAdjust="spacing" textLength="79.7822"
                  x="1707.11" y="104.8467">distribution
            </text>
            <line style="stroke:#181818;stroke-width:0.5;" x1="1679.11" x2="1788.8922" y1="116" y2="116"/>
            <text fill="#000000" font-family="sans-serif" font-size="14" lengthAdjust="spacing" textLength="83.9996"
                  x="1684.11" y="132.9951">&#39033;&#30446;&#25171;&#21253;&#27169;&#22359;
            </text>
            <line style="stroke:#181818;stroke-width:0.5;" x1="1679.11" x2="1788.8922" y1="140.2969" y2="140.2969"/>
        </g><!--class server-->
        <g id="elem_server">
            <rect codeLine="62" fill="#F1F1F1" height="64.2969" id="server" rx="2.5" ry="2.5"
                  style="stroke:#181818;stroke-width:0.5;" width="95.9996" x="1825" y="84"/>
            <ellipse cx="1848.857" cy="100" fill="#ADD1B2" rx="11" ry="11" style="stroke:#181818;stroke-width:1.0;"/>
            <path d="M1851.8258,105.6406 Q1851.2476,105.9375 1850.607,106.0781 Q1849.9664,106.2344 1849.2633,106.2344 Q1846.7633,106.2344 1845.4351,104.5937 Q1844.1226,102.9375 1844.1226,99.8125 Q1844.1226,96.6875 1845.4351,95.0312 Q1846.7633,93.375 1849.2633,93.375 Q1849.9664,93.375 1850.607,93.5312 Q1851.2633,93.6875 1851.8258,93.9844 L1851.8258,96.7031 Q1851.2008,96.125 1850.607,95.8594 Q1850.0133,95.5781 1849.3883,95.5781 Q1848.0445,95.5781 1847.357,96.6562 Q1846.6695,97.7187 1846.6695,99.8125 Q1846.6695,101.9062 1847.357,102.9844 Q1848.0445,104.0469 1849.3883,104.0469 Q1850.0133,104.0469 1850.607,103.7812 Q1851.2008,103.5 1851.8258,102.9219 L1851.8258,105.6406 Z "
                  fill="#000000"/>
            <text fill="#000000" font-family="sans-serif" font-size="14" lengthAdjust="spacing" textLength="44.3174"
                  x="1864.8252" y="104.8467">server
            </text>
            <line style="stroke:#181818;stroke-width:0.5;" x1="1826" x2="1919.9996" y1="116" y2="116"/>
            <text fill="#000000" font-family="sans-serif" font-size="14" lengthAdjust="spacing" textLength="83.9996"
                  x="1831" y="132.9951">&#21518;&#31471;&#26381;&#21153;&#27169;&#22359;
            </text>
            <line style="stroke:#181818;stroke-width:0.5;" x1="1826" x2="1919.9996" y1="140.2969" y2="140.2969"/>
        </g><!--SRC=[ZPJ_Ii9G5CV_xoak_h-7g4Ze3qdo2UQysd1wnzrC8eAeL0gJmdwQQQF-65Hc168ky6LsxzfRjBcjjZbSzu_BE3y-vtpFkKnakI9RW22Hn6m9LX4k9i3k4h2Ew7bM18HA8CaBCiIUqpwSm4eII6HjDvEVkHaEOUYFiGyP7vgT-lUqGRKdSgkQ-ntZGgMgGkwlV-Fs5b85nB5264kxBwGxD3f78JuPz8pMC4Hsxg2kLPRRWX62EDiUgOG-ZCdqqFXgazURE04kXStd8L-U8wswTa_531a7mp37Is7Ifcq4aG2VQ8yJ4kK88hKNKdlt2OgQriPcAc9MfPqiA_CI8mgLkSvIEoks3wGj7uZRYikJB9svYX1eaWmwz7gaQnevKMAQpCW8snzhvK9ew1xV2M3WB631agrfaWELV5tITYjkrI5ev6ib_Oa-QJdRfbSDNHiP7vgXzUttwolrxo98ag9Bc3TJiz7K9-TW8vC1Y_4HynSnNoumESJvwSlfTM0rJPN7mFpzYLMO3Upih6Kylz7kgRKpVQnHfKvx8pVDIdIJh9ShOpvRaNbKzh9DvTEu6z3ZDcdMt6f_2HB4sty_8NyHB_G7]-->
    </g>
</svg>